<?xml version="1.0" standalone="no"?>
<!DOCTYPE svg PUBLIC "-//W3C//DTD SVG 20010904//EN" "http://www.w3.org/TR/2001/REC-SVG-20010904/DTD/svg10.dtd">
<!-- Created using Krita: https://krita.org -->
<svg xmlns="http://www.w3.org/2000/svg" 
    xmlns:xlink="http://www.w3.org/1999/xlink"
    xmlns:krita="http://krita.org/namespaces/svg/krita"
    xmlns:sodipodi="http://sodipodi.sourceforge.net/DTD/sodipodi-0.dtd"
    width="275.04pt"
    height="237.6pt"
    viewBox="0 0 275.04 237.6">
<defs/>
<circle id="shape01" transform="matrix(1.09473428814764 -0.350841616321157 0.350841616321157 1.09473428814764 115.637820703528 68.5577280133171)" r="59.1939573845064" cx="59.1939573845064" cy="59.1939573845064" fill="#ffffff" fill-rule="evenodd" stroke="#000000" stroke-width="0.54" stroke-linecap="square" stroke-linejoin="bevel"/><circle id="shape011" transform="matrix(1.09473428814764 -0.350841616321157 0.350841616321157 1.09473428814764 -13.5828405864148 83.6830216425065)" r="59.1939573845064" cx="59.1939573845064" cy="59.1939573845064" fill="#000000" fill-rule="evenodd" stroke="#000000" stroke-width="1" stroke-linecap="square" stroke-linejoin="bevel"/><text id="shape0" krita:textVersion="3" transform="matrix(3.50653916649102 -1.14923443067455 1.37504166199053 4.19552122232941 35.1868657313288 145.497790780605)" paint-order="stroke fill markers" fill="#000000" stroke-opacity="0" stroke="#000000" stroke-width="0" stroke-linecap="square" stroke-linejoin="bevel" style="font-size: 12;text-decoration-position: under right;"><tspan x="0" y="0"><tspan> </tspan><tspan style="font-family: Verdana;font-stretch: normal;font-style: normal;font-weight: 700;line-height: normal;"></tspan></tspan></text><path id="shape1" transform="matrix(0.261903229529661 0.949361291605515 -0.949361291605515 0.261903229529661 136.354338531904 -6.51682886290984)" paint-order="stroke markers fill" fill="#fea711" fill-rule="evenodd" stroke-opacity="0" stroke="#000000" stroke-width="0" stroke-linecap="square" stroke-linejoin="bevel" d="M11.7255 0L110.168 2.26514L110.168 37.7742L0 42.2325Z" sodipodi:nodetypes="ccccc"/><path id="shape012" transform="matrix(0.272612221230315 0.946341767266373 -0.946341767266373 0.272612221230315 146.396362051856 132.885993132606)" paint-order="stroke markers fill" fill="#fea711" fill-rule="evenodd" stroke-opacity="0" stroke="#000000" stroke-width="0" stroke-linecap="square" stroke-linejoin="bevel" d="M0 3.76306L106.933 0L94.9076 41.1642L0 39.272Z" sodipodi:nodetypes="ccccc"/><path id="shape2" transform="matrix(0.947706721057856 -0.267828554300506 0.267828554300506 0.947706721057856 96.2192194933958 4.50301897314604)" fill="#fe8b00" fill-rule="evenodd" stroke-opacity="0" stroke="#000000" stroke-width="0" stroke-linecap="square" stroke-linejoin="bevel" d="M0.000956417 0.0626516L3.96096 110.313L8.82096 110.133L5.46272 1.53346L0 0" sodipodi:nodetypes="ccccc"/><path id="shape3" transform="matrix(0.947706721057856 -0.267828554300506 0.267828554300506 0.947706721057856 101.347887131483 4.96240718968621)" fill="none" stroke="#b74100" stroke-width="0.9" stroke-linecap="square" stroke-linejoin="miter" stroke-miterlimit="2" d="M0 0L3.9375 107.46" sodipodi:nodetypes="cc"/><path id="shape02" transform="matrix(-1.09515429952642 0.297360196890011 -0.250415888530683 -0.922262091101404 175.875889164972 233.856021469122)" fill="#fe8b00" fill-rule="evenodd" stroke-opacity="0" stroke="#000000" stroke-width="0" stroke-linecap="square" stroke-linejoin="bevel" d="M0 0L3.96 109.98L8.82 109.8L5.4 1.62L0 0" sodipodi:nodetypes="ccccc"/><path id="shape11" transform="matrix(-1.09515429952642 0.297360196890011 -0.250415888530683 -0.922262091101404 169.658818131426 233.396265870778)" fill="none" stroke="#b74100" stroke-width="0.9" stroke-linecap="square" stroke-linejoin="miter" stroke-miterlimit="2" d="M0 0L3.78032 107.19" sodipodi:nodetypes="cc"/><path id="shape4" transform="matrix(0.947706721057856 -0.267828554300506 0.267828554300506 0.947706721057856 101.281171593184 4.64858231380402)" fill="none" stroke="#000000" stroke-width="0.1854" stroke-linecap="square" stroke-linejoin="miter" stroke-miterlimit="2" d="M0 0L4.00493 108.615" sodipodi:nodetypes="cc"/><path id="shape03" transform="matrix(0.944620359102083 -0.278518474803352 0.278518474803352 0.944620359102083 138.590631532411 135.331992817573)" fill="none" stroke="#000000" stroke-width="0.1854" stroke-linecap="square" stroke-linejoin="miter" stroke-miterlimit="2" d="M0 0L2.15437 104.726" sodipodi:nodetypes="cc"/><path id="shape04" transform="matrix(1.17777105470565 -0.377453328138999 0.294715822852373 0.919604464029152 12.683629488805 127.613046677201)" paint-order="stroke fill markers" fill="#fea711" stroke-opacity="0" stroke="#000000" stroke-width="0" stroke-linecap="square" stroke-linejoin="bevel" d="M9.23344 9.07594L25.1437 9.07594L25.1437 0.509063L0 0.509063L0 36.6159L25.1437 36.6159L25.1437 27.9984L9.23344 27.9984L9.23344 22.59L23.8697 22.59L23.8697 14.6869L9.23344 14.6869L9.23344 9.07594M55.6903 7.70063C53.1928 1.93781 47.8378 0 43.1437 0C36.0056 0 28.8647 4.07813 28.8647 12.2372L28.8647 24.6319C28.8647 32.9428 36.0056 37.125 43.1437 37.125C50.3859 37.125 57.3216 32.9428 57.3216 24.6319L57.3216 15.6544L42.7866 15.6544L42.7866 23.3044L48.5522 23.3044L48.5522 24.6319C48.5522 30.24 37.9941 30.2934 37.9941 24.6319L37.9941 12.2372C37.9941 7.49531 46.0519 6.37313 48.0403 11.2191L55.6903 7.70063M79.965 25.3463C77.9766 30.3441 69.8175 29.1178 69.8175 24.7838L69.8175 12.3413C69.8175 7.8525 77.8753 6.83156 80.3222 11.3203L87.7697 8.31094C84.8616 1.88438 79.5066 0 75.0712 0C67.8291 0 60.6881 4.17938 60.6881 12.3413L60.6881 24.7838C60.6881 32.9963 67.8291 37.125 74.9166 37.125C79.4559 37.125 84.9122 34.8806 87.9216 29.0166L79.965 25.3463" sodipodi:nodetypes="ccccccccccccccccccccccccccccccccccccccc"/><path id="shape12" transform="matrix(0.967156719741309 -0.309955420656511 0.30897651254782 0.964102223861469 156.421022996291 146.439217938901)" paint-order="stroke fill markers" fill="#fea711" stroke-opacity="0" stroke="#000000" stroke-width="0" stroke-linecap="square" stroke-linejoin="bevel" d="M7.92 -23.2312C11.6634 -30.0966 19.2009 -25.2 14.6391 -20.0644L0.815625 -4.51125L2.97562 -0.0478125L24.8653 -0.0478125L24.8653 -8.20688L17.1844 -8.20688L13.1991 -7.39125L20.6887 -14.4956C23.76 -17.3756 24.9131 -20.8322 24.9131 -24.0019C24.9131 -29.3287 21.0234 -34.4644 13.5366 -34.4644C8.87906 -34.4644 4.27219 -32.0653 1.48781 -26.7356L7.92 -23.2312M41.0878 0.480937C46.8956 0.480937 53.3756 -2.73656 53.3756 -9.93656L53.3756 -24.0019C53.3756 -31.2497 46.8956 -34.4644 41.0878 -34.4644C35.3278 -34.4644 28.8 -31.2497 28.8 -24.0019L28.8 -9.93656C28.8 -2.73656 35.3278 0.480937 41.0878 0.480937M41.0878 -26.9297C43.0087 -26.9297 45.2166 -25.8244 45.2166 -23.76L45.2166 -9.84094C45.2166 -7.87219 43.0566 -6.8175 41.0878 -6.8175C39.0234 -6.8175 36.9591 -7.87219 36.9591 -9.84094L36.9591 -23.76C36.9591 -25.7766 39.0712 -26.9297 41.0878 -26.9297M63.3122 -23.2312C67.0556 -30.0966 74.5931 -25.2 70.0313 -20.0644L56.2078 -4.51125L58.3678 -0.0478125L80.2575 -0.0478125L80.2575 -8.20688L72.5766 -8.20688L68.5913 -7.39125L76.0809 -14.4956C79.1522 -17.3756 80.3053 -20.8322 80.3053 -24.0019C80.3053 -29.3287 76.4156 -34.4644 68.9287 -34.4644C64.2712 -34.4644 59.6644 -32.0653 56.88 -26.7356L63.3122 -23.2312M83.2303 -33.9834L83.2303 -25.8244L96.1931 -25.8244L85.1512 0L94.3678 0L107.471 -29.3766L105.168 -33.9834L83.2303 -33.9834" sodipodi:nodetypes="cccccccccccccccccccccccccccccccccccccccccccccccc"/><path id="shape013" transform="matrix(0.306239858793288 1.09270452335109 -0.920199061536383 0.257893716594483 249.901161116648 80.1561614462705)" fill="#fe8b00" fill-rule="evenodd" stroke-opacity="0" stroke="#000000" stroke-width="0" stroke-linecap="square" stroke-linejoin="bevel" d="M0 0.697875L0.943077 25.8846L5.88548 25.6607L5.29636 0.0960832L4.29241 0" sodipodi:nodetypes="ccccc"/><path id="shape111" transform="matrix(0.306239858793288 1.09270452335109 -0.920199061536383 0.257893716594483 250.717431317539 85.9271351354801)" fill="none" stroke="#b74100" stroke-width="0.9" stroke-linecap="square" stroke-linejoin="miter" stroke-miterlimit="2" d="M0 0L0.85514 24.4219" sodipodi:nodetypes="cc"/><path id="shape21" transform="matrix(0.937840002084615 -0.300559967605243 0.300559967605243 0.937840002084615 201.769864019786 95.1095374208088)" fill="#fe8b00" fill-rule="evenodd" stroke-opacity="0" stroke="#000000" stroke-width="0" stroke-linecap="square" stroke-linejoin="bevel" d="M0 6.40195C2.84539 2.55001 3.00114 1.1952 10.3275 0.0569492C16.6001 -0.490537 20.6963 3.00358 22.1175 6.49195L10.35 6.28945L1.125 6.69445C1.08256 6.77698 0.480522 6.79826 0 6.40195Z" sodipodi:nodetypes="cccccc"/><path id="shape021" transform="matrix(0.937840002084615 -0.300559967605243 0.300559967605243 0.937840002084615 174.337283903367 103.934847610274)" fill="#fe8b00" fill-rule="evenodd" stroke-opacity="0" stroke="#000000" stroke-width="0" stroke-linecap="square" stroke-linejoin="bevel" d="M0 6.62283C2.48552 2.7349 3.16591 1.11082 11.295 0.0528316C17.6189 -0.515838 22.5184 3.62787 23.49 6.63408C19.1127 6.37346 15.1794 6.25239 11.6899 6.27089C8.43875 6.12856 4.54212 6.24587 0 6.62283Z" sodipodi:nodetypes="ccccc"/><path id="shape031" transform="matrix(0.954110647505927 -0.305774401463765 -0.300559967605243 -0.937840002084615 59.5987062989334 150.726928506422)" fill="#fe8b00" fill-rule="evenodd" stroke-opacity="0" stroke="#000000" stroke-width="0" stroke-linecap="square" stroke-linejoin="bevel" d="M0 6.81878C2.56448 2.09682 7.35595 0.69718 14.4363 0.11378C20.5705 -0.710627 29.0817 3.08562 31.2282 6.95378C25.1609 6.84247 22.3011 6.05485 14.8157 6.70628C12.938 6.6589 7.99941 6.6964 0 6.81878Z" sodipodi:nodetypes="ccccc"/><path id="shape041" transform="matrix(-0.385954981371775 -1.06715733555085 -0.898685012920033 0.32502419827495 53.3782581993087 151.831214578605)" fill="#fe8b00" fill-rule="evenodd" stroke-opacity="0" stroke="#000000" stroke-width="0" stroke-linecap="square" stroke-linejoin="bevel" d="M0 0.182148L1.05285 32.6729L5.99526 32.449L5.25078 0" sodipodi:nodetypes="cccc"/><path id="shape121" transform="matrix(-0.385954981371775 -1.06715733555085 -0.898685012920033 0.32502419827495 50.9088341128062 146.570956984831)" fill="none" stroke="#b74100" stroke-width="0.9" stroke-linecap="square" stroke-linejoin="miter" stroke-miterlimit="2" d="M0 0C0.339352 10.5165 0.678703 21.033 1.01806 31.5496" sodipodi:nodetypes="cc"/><path id="shape31" transform="matrix(0.937840002084615 -0.300559967605243 0.300559967605243 0.937840002084615 21.6734614267135 155.817774573785)" fill="#ffffff" fill-rule="evenodd" stroke="#000000" stroke-width="0.1854" stroke-linecap="square" stroke-linejoin="miter" stroke-miterlimit="2" d="M0 0L31.545 0.09" sodipodi:nodetypes="cc"/><path id="shape41" transform="matrix(0.937840002084615 -0.300559967605243 0.300559967605243 0.937840002084615 228.147581871102 93.2301049770435)" fill="none" stroke="#000000" stroke-width="0.1854" stroke-linecap="square" stroke-linejoin="miter" stroke-miterlimit="2" d="M0 0C8.21262 0 16.4252 0 24.6379 0" sodipodi:nodetypes="cc"/><path id="shape13" transform="matrix(-0.385954981371775 -1.06715733555085 -0.898685012920033 0.32502419827495 86.859321773843 135.0291503658)" fill="none" stroke="#b74100" stroke-width="0.9" stroke-linecap="square" stroke-linejoin="miter" stroke-miterlimit="2" d="M0 0C0.339352 10.5165 0.678703 21.033 1.01806 31.5496" sodipodi:nodetypes="cc"/><path id="shape05" transform="matrix(0.937840002084615 -0.300559967605243 0.300559967605243 0.937840002084615 57.6239490877502 144.275967954754)" fill="#ffffff" fill-rule="evenodd" stroke="#000000" stroke-width="0.1854" stroke-linecap="square" stroke-linejoin="miter" stroke-miterlimit="2" d="M0 0L31.545 0.09" sodipodi:nodetypes="cc"/><path id="shape06" transform="matrix(0.954110647505927 -0.305774401463765 -0.300559967605243 -0.937840002084615 96.6341049134888 138.359260996423)" fill="#fe8b00" fill-rule="evenodd" stroke-opacity="0" stroke="#000000" stroke-width="0" stroke-linecap="square" stroke-linejoin="bevel" d="M0 6.81878C2.56448 2.09682 7.35595 0.69718 14.4363 0.11378C20.5705 -0.710627 29.0817 3.08562 31.2282 6.95378C25.1609 6.84247 22.3011 6.05485 14.8157 6.70628C12.938 6.6589 7.99941 6.6964 0 6.81878Z" sodipodi:nodetypes="ccccc"/><path id="shape14" transform="matrix(-0.385954981371775 -1.06715733555085 -0.898685012920033 0.32502419827495 123.894720517337 122.661483258127)" fill="none" stroke="#b74100" stroke-width="0.9" stroke-linecap="square" stroke-linejoin="miter" stroke-miterlimit="2" d="M0 0C0.339352 10.5165 0.678703 21.033 1.01806 31.5496" sodipodi:nodetypes="cc"/><path id="shape0111" transform="matrix(0.937840002084615 -0.300559967605243 0.300559967605243 0.937840002084615 94.6593478312417 131.908300847084)" fill="#ffffff" fill-rule="evenodd" stroke="#000000" stroke-width="0.1854" stroke-linecap="square" stroke-linejoin="miter" stroke-miterlimit="2" d="M0 0L31.545 0.09" sodipodi:nodetypes="cc"/><path id="shape15" transform="matrix(0.306239858793288 1.09270452335109 -0.920199061536383 0.257893716594483 223.959234773292 94.5528353493767)" fill="none" stroke="#b74100" stroke-width="0.9" stroke-linecap="square" stroke-linejoin="miter" stroke-miterlimit="2" d="M0 0L0.814947 21.8714" sodipodi:nodetypes="cc"/><path id="shape07" transform="matrix(0.937840002084615 -0.300559967605243 0.300559967605243 0.937840002084615 203.753795527683 100.946065196096)" fill="none" stroke="#000000" stroke-width="0.1854" stroke-linecap="square" stroke-linejoin="miter" stroke-miterlimit="2" d="M0 0C7.28076 0 14.5615 0 21.8423 0" sodipodi:nodetypes="cc"/><path id="shape08" transform="matrix(0.937840002084615 -0.300559967605243 0.300559967605243 0.937840002084615 148.251781380467 112.372481255901)" fill="#fe8b00" fill-rule="evenodd" stroke-opacity="0" stroke="#000000" stroke-width="0" stroke-linecap="square" stroke-linejoin="bevel" d="M0 6.40195C2.84539 2.55001 3.00114 1.1952 10.3275 0.0569492C16.6001 -0.490537 20.6963 3.00358 22.1175 6.49195L10.35 6.28945L1.125 6.69445C1.08256 6.77698 0.480522 6.79826 0 6.40195Z" sodipodi:nodetypes="cccccc"/><path id="shape16" transform="matrix(0.306239858793288 1.09270452335109 -0.920199061536383 0.257893716594483 170.441152140406 111.815779204536)" fill="none" stroke="#b74100" stroke-width="0.9" stroke-linecap="square" stroke-linejoin="miter" stroke-miterlimit="2" d="M0 0L0.814947 21.8714" sodipodi:nodetypes="cc"/><path id="shape0121" transform="matrix(0.937840002084615 -0.300559967605243 0.300559967605243 0.937840002084615 150.235712894794 118.209009051249)" fill="none" stroke="#000000" stroke-width="0.1854" stroke-linecap="square" stroke-linejoin="miter" stroke-miterlimit="2" d="M0 0C7.28076 0 14.5615 0 21.8423 0" sodipodi:nodetypes="cc"/><path id="shape17" transform="matrix(0.306239858793288 1.09270452335109 -0.920199061536383 0.257893716594483 197.927366376074 103.099744419057)" fill="none" stroke="#b74100" stroke-width="0.9" stroke-linecap="square" stroke-linejoin="miter" stroke-miterlimit="2" d="M0 0L0.814947 23.2216" sodipodi:nodetypes="cc"/><path id="shape09" transform="matrix(0.937840002084615 -0.300559967605243 0.300559967605243 0.937840002084615 176.498196635589 110.091093235826)" fill="none" stroke="#000000" stroke-width="0.1854" stroke-linecap="square" stroke-linejoin="miter" stroke-miterlimit="2" d="M0 0C7.70566 0 15.4113 0 23.117 0" sodipodi:nodetypes="cc"/>
</svg>
