<?xml version="1.0" standalone="no"?>
<!DOCTYPE svg PUBLIC "-//W3C//DTD SVG 20010904//EN" "http://www.w3.org/TR/2001/REC-SVG-20010904/DTD/svg10.dtd">
<!-- Created using Krita: https://krita.org -->
<svg xmlns="http://www.w3.org/2000/svg" 
    xmlns:xlink="http://www.w3.org/1999/xlink"
    xmlns:krita="http://krita.org/namespaces/svg/krita"
    xmlns:sodipodi="http://sodipodi.sourceforge.net/DTD/sodipodi-0.dtd"
    width="850.32pt"
    height="812.4pt"
    viewBox="0 0 850.32 812.4">
<defs/>
<path id="shape2" transform="matrix(1.99943566591422 0 0 2.00059101654846 231.792357830354 239.110856410297)" fill="#a46331" fill-rule="evenodd" stroke="#000000" stroke-width="1.2" stroke-linecap="square" stroke-linejoin="bevel" d="M0.640561 0C67.9825 0.282574 135.324 0.565147 202.666 0.847721C202.481 61.4907 204.56 120.118 201.025 181.306C189.01 214.109 130.345 223.381 102.024 233.33C75.498 222.626 19.669 221.618 1.50716 179.6C-1.54525 121.26 1.05304 59.5405 0.640561 0Z" sodipodi:nodetypes="cccccc"/><path id="shape3" transform="matrix(1.99943566591422 0 0 2.00059101654846 265.548532827604 302.98148938725)" fill="#e3c30d" fill-rule="evenodd" stroke="#574600" stroke-width="0.4608" stroke-linecap="square" stroke-linejoin="bevel" d="M78.3698 41.3656L76.5933 39.829L70.9838 38.1053L67.0988 31.7692L64.4525 31.7694L64.6644 32.4464L67.2998 37.0517L57.9305 34.5789L52.2638 32.0751L49.4879 28.2152L46.4253 23.2529L44.4077 21.0439L42.8323 21.7518L43.2654 22.5887L48.1721 30.5062L43.8861 29.1361L38.4131 27.6777L33.1516 26.816L28.2655 24.2174L25.4221 21.5983L22.7981 18.737L20.8029 18.987L21.3079 20.3293L23.2444 22.5731L25.7158 25.0674L28.6092 28.4906L29.3095 29.3839L25.8762 29.8816L22.6192 30.8841L19.3853 31.8521L16.3497 33.0605L18.0328 35.7421L20.9377 33.8563L25.401 32.6761L29.899 31.4728L34.8772 31.2556L39.5127 32.2284L33.6147 37.1332L36.157 37.2599L43.9103 33.4592L46.7408 34.3177L51.4622 36.4344L59.2414 39.7328L62.5744 40.6069L63.7831 41.1082L64.5809 41.4821L66.0869 42.0932L69.8449 43.9611L73.1231 47.9494L66.2605 48.1789L68.4267 49.9111L72.3258 49.6571L75.2558 50.5441L76.4611 52.0105L78.4616 55.6221L78.6525 58.5315L78.9592 64.7825L78.9861 69.4709L79.2034 69.4678L77.894 86.8883L70.0794 87.2392L67.8508 87.0418L67.219 86.7059L65.3776 80.7428L64.5655 81.1648L65.2525 85.6605L63.1599 84.5481L56.6886 81.0905L50.9993 78.2758L46.6257 75.8661L45.7117 75.4224L44.373 71.5489L42.2448 71.0909L43.2535 74.6907L43.2632 74.6946L41.5643 74.5755L37.2931 74.4639L31.7222 74.5986L26.6077 74.5873L23.9535 74.3136L21.5923 72.745L19.7032 71.2833L18.6364 72.5559L20.4173 74.056L22.492 75.3873L23.5138 75.9841L24.0484 76.8187L23.6079 77.5391L22.8423 78.0377L22.0458 78.6972L21.435 79.1879L20.971 79.5331L20.0353 80.2003L18.8447 81.4193L20.091 82.2151L22.4884 80.612L24.3442 79.155L25.4105 78.2054L26.3546 77.6512L28.5212 77.4893L33.2178 77.4396L37.8527 77.5508L41.0559 77.4793L44.2981 77.6759L49.1745 81.3017L44.005 85.5992L44.2452 85.6306L42.7687 86.56L44.2397 87.6007L46.0915 85.8721L46.3342 85.9038L50.9127 83.2495L51.5457 82.7904L53.6037 84.0424L58.7447 88.2058L63.4361 91.2971L67.3524 92.7802L68.454 92.8813L64.7022 97.4746L64.8937 97.4834L63.7625 98.7012L65.125 99.5581L66.4935 97.5564L66.8456 97.5725L70.8973 94.0606L71.7475 93.2387L74.3714 94.054L76.508 95.3546L76.5887 99.591L76.2124 109.342L75.9587 111.418L76.0883 111.418L76.29 113.917L76.3093 113.924L73.1161 119.229L70.0099 122.851L57.4657 123.377L51.787 125.298L44.1764 128.675L36.9182 133.017L29.7772 137.599L24.7985 140.355L18.5919 140.992L13.1121 140.636L9.40861 140.388L5.77022 141.76L0.856401 146.068L0 149.278L1.53176 149.214L3.8302 146.653L6.88309 144.1L9.94222 142.972L13.5533 143.312L16.8523 143.941L14.5659 146.606L11.3529 149.711L8.77258 151.503L5.25096 153.036L5.91927 154.573L10.7687 154.103L14.3698 152.18L17.3845 148.845L21.6877 145.586L27.1986 142.448L31.6685 140.118L36.67 137.281L38.3582 136.102L37.8293 136.977L37.1163 138.486L35.9054 140.249L34.7643 142.07L34.0382 143.222L33.0115 144.652L31.4067 146.589L29.5111 148.379L27.8599 150.316L26.8574 151.976L26.6899 153.482L27.5751 154.179L29.2978 153.566L31.4445 151.691L35.0071 148.029L38.3587 143.015L41.1343 138.974L43.4258 134.85L43.7219 133.375L47.7184 131.797L53.1718 128.785L59.2268 127.966L64.9458 127.297L69.9005 127.034L73.1938 126.353L69.005 129.256L60.9793 133.244L56.5429 135.275L51.6611 138.939L46.6876 142.868L42.8179 147.068L40.4629 149.962L38.9902 152.922L39.926 154.584L41.8281 154.277L43.1889 152.272L44.7789 149.622L48.1654 146.389L51.856 143.673L55.4217 141.623L58.3171 140.208L60.4453 138.533L63.8858 137.024L64.5737 137.733L63.7514 140.771L62.8872 144.842L61.1709 147.826L58.6188 150.779L56.6898 152.879L54.5613 154.497L53.1159 155.733L53.3171 156.605L54.9656 156.702L57.4345 155.973L59.715 154.595L61.6577 152.961L63.534 150.74L64.9403 148.539L65.9209 147.196L69.6523 149.811L72.6252 152.844L74.203 155.33L75.2893 156.923L76.475 157.343L76.7789 155.17L75.3825 151.705L74.1433 149.665L72.5464 148.121L70.9849 146.691L69.5296 145.663L68.517 145.013L68.0384 144.383L67.6339 142.144L67.6822 139.926L67.839 138.627L68.6058 136.141L70.548 134.397L72.3525 133.011L74.0057 131.532L76.2143 129.65L78.5033 127.594L80.9541 125.354L82.9667 123.782L83.6824 122.894L84.0985 122.502L84.2244 124.754L84.4754 129.05L83.4164 131.054L81.4676 133.936L80.4963 137.422L80.9744 140.58L82.5996 143.296L84.3612 145.346L85.3329 147.26L85.523 148.259L85.8192 149.649L85.2943 151.685L84.0632 154.149L83.0956 155.82L82.8044 158.223L84.3593 158.147L85.8374 156.44L87.6853 154.363L88.7093 152.313L88.9685 150.543L88.8903 148.601L89.2234 147.806L90.5847 148.57L94.091 151.474L95.9626 154.798L96.5479 155.933L97.3539 157.113L98.2545 156.041L98.5036 154.626L98.2304 153.191L96.9215 151.151L95.509 149.296L94.0066 148.107L92.4471 147.137L89.792 145.138L87.123 142.599L85.6778 141.214L84.7876 139.368L84.3276 137.693L84.2172 136.337L84.6059 134.979L85.5043 133.424L86.6699 131.891L88.1611 130.528L88.9002 129.686L89.3254 128.719L89.4275 128.167L89.4815 129.913L89.3506 131.821L89.199 134.304L89.3218 135.832L89.4941 138.072L90.3503 140.114L91.9257 142.049L94.1279 144.016L95.946 145.72L97.0567 147.565L98.0825 148.572L99.0684 148.441L99.6442 147.405L98.962 145.351L97.6396 142.874L96.3789 141.213L94.9928 140.105L93.9662 138.891L93.2399 137.366L92.9427 135.77L92.9832 134.414L93.0135 133.38L93.0577 132.874L93.336 132.827L95.1575 135.312L96.7903 137.098L98.97 139.226L100.986 141.182L102.257 142.532L103.505 143.86L104.708 145.59L104.811 147.796L104.914 150.07L104.842 152.346L104.469 154.577L105.057 156.31L105.869 156.122L106.851 155.164L107.646 153.782L108.253 152.021L108.869 149.501L108.707 146.894L108.284 145.231L108.717 145.374L109.833 145.817L110.879 146.169L112.66 147.322L114.315 148.82L115.935 150.387L117.369 151.783L118.849 153.132L120.155 154.505L121.54 155.545L122.96 156.309L125.48 156.757L125.276 155.081L123.585 153.295L122.021 151.326L119.954 148.542L117.902 146.379L115.516 144.896L112.505 143.726L110.423 142.746L110.21 142.422L110.039 142.461L110.19 142.391L110.21 142.422L110.456 142.367L111.373 142.225L112.706 141.966L114.296 141.81L116.223 141.859L118.546 142.263L119.905 142.601L121.683 142.996L123.669 143.424L124.62 143.328L124.605 142.512L123.927 141.239L122.297 140.258L119.997 139.74L116.527 139.847L112.035 139.729L108.261 139.263L104.506 138.003L103.524 137.473L102.672 136.497L98.4439 133.069L96.4031 130.871L95.2698 129.152L94.5336 128.006L93.4691 126.115L93.2625 123.99L93.2804 122.795L93.5876 121.392L93.725 120.399L93.7304 120.406L94.7922 121.688L96.2364 122.831L98.0427 124.478L100.025 126.572L102.559 127.457L104.663 128.31L107.812 129.077L111.54 129.682L115.492 130.79L118.176 131.457L119.85 132.104L122.933 133.792L125.56 137.4L126.427 139.315L127.317 141.161L128.091 142.87L129.112 145.474L130.095 147.297L131.415 149.141L133.141 151.11L134.609 152.425L136.588 153.75L138.391 154.581L139.516 154.369L140.303 153.871L138.997 152.578L137.365 150.839L135.881 148.651L134.036 146.165L132.772 143.746L131.89 141.072L130.484 137.987L128.625 134.985L129.52 135.325L130.521 135.838L132.685 137.162L134.978 138.669L138.259 140.343L142.072 141.775L145.57 145.356L147.061 146.74L147.856 148.115L148.991 150.087L150.056 152.024L151.458 154.11L153.24 155.734L155.811 157.113L157.938 157.689L160.609 157.942L164.206 157.892L164.225 156.926L161.864 155.65L159.414 155.546L156.399 153.548L154.091 151.225L152.549 148.876L151.135 146.653L151.174 145.09L152.25 144.361L153.967 144.032L157.516 143.568L161.542 143.263L164.764 144.743L166.418 146.057L167.155 147.364L168.802 149.782L170.614 150.119L172.13 149.101L169.698 145.17L166.643 141.816L160.646 140.004L154.662 141.202L150.649 141.783L147.984 141.881L146.68 140.991L145.643 139.973L144.43 138.633L141.973 136.943L139.207 136.082L136.3 134.808L133.601 133.464L129.448 131.161L125.088 129.353L121.146 127.842L116.415 126.139L111.281 125.161L103.807 122.62L101.557 120.435L97.8634 117.13L95.4945 114.222L94.6221 113.862L94.6316 113.32L94.2347 113.312L94.2962 112.402L93.8907 108.518L93.3509 100.98L94.4305 96.4442L98.633 93.2154L101.131 92.003L102.301 94.0475L104.354 96.6965L107.311 98.6477L109.361 97.8953L107.077 95.8747L105.691 95.2782L104.933 94.7196L104.212 93.8621L102.082 90.9986L103.405 90.2851L105.083 89.3492L108.092 88.3585L112.609 86.1563L115.571 84.5452L118.38 84.2365L124.578 85.1892L130.51 91.4128L131.957 91.0439L126.249 84.1153L131.239 84.0271L137.36 84.1372L142.359 84.6005L147.701 89.1009L149.504 88.5555L143.494 82.1252L148.544 78.4133L147.042 77.2271L141.752 81.054L136.483 80.6292L126.943 81.579L121.468 80.2581L122.943 79.2374L124.698 77.3361L125.827 76.3087L125.261 74.7233L124.333 75.6663L122.091 77.8668L118.849 79.6264L118.705 79.5916L112.912 82.4001L105.208 85.6468L103.707 85.7749L103.841 85.5631L104.567 83.134L104.48 81.4793L103.652 81.5413L102.843 84.7212L102.241 85.9L102.128 85.9097L97.7816 88.0428L93.4345 89.747L92.2577 89.1351L92.2067 88.826L89.259 69.9964L89.11 57.4282L89.5612 57.0979L91.6026 55.4186L94.3402 53.5088L97.1358 51.6795L98.4809 50.0811L101.623 46.4934L104.001 44.0553L107.306 41.3063L108.235 41.5584L109.652 42.3616L112.23 44.1063L114.632 44.4836L115.154 43.4949L113.888 42.6915L112.657 42.0949L111.299 41.0848L110.23 40.5455L109.545 39.9945L109.487 39.4545L110.275 38.2702L112.409 36.3265L114.218 34.6933L116.005 34.1403L119.499 33.9882L124.199 33.9959L127.611 33.8898L130.722 34.1516L132.975 35.4369L135.413 36.8139L137.989 35.4099L135.608 33.6536L132.694 32.6102L129.363 32.0728L127.923 31.2695L129.164 30.3952L130.393 29.2106L132.307 27.6693L136.218 26.609L140.755 25.6286L144.027 25.2698L146.744 25.9111L149.845 28.6551L150.17 29.0915L152.087 31.4917L153.468 31.2837L155.208 29.4897L153.256 27.825L151.584 26.4129L149.621 24.8517L147.995 23.1982L152.462 21.402L155.153 19.6992L155.907 18.6299L155 16.5507L153.422 17.4942L149.594 19.7725L146.589 20.7172L143.549 21.8802L141.159 22.5256L138.977 23.2054L136.215 23.8281L137.003 22.4715L138.788 19.0916L138.96 16.5634L136.813 16.6341L136.083 18.6111L134.762 20.8185L131.677 24.1075L129.056 26.4997L125.368 29.387L122.897 30.4232L119.902 30.7358L116.769 30.6119L118.611 27.3239L119.804 24.3122L117.344 25.0382L114.064 30.2463L105.725 37.2971L101.573 41.6211L97.6973 42.555L97.4295 41.4061L97.6236 37.4069L97.459 34.7985L96.1702 34.0756L95.4988 36.3974L95.3284 40.994L95.0638 43.9705L91.9432 45.8346L88.7628 45.5153L86.8615 43.809L87.1538 43.7777L85.9753 35.8381L86.3854 26.1851L87.1591 21.2662L88.0853 18.2433L100.446 3.24884L99.1443 1.3768L85.8307 14.5449L84.1937 13.8912L83.8868 14.0735L82.8628 4.05569L82.5235 0.63156L81.9427 0L80.8517 0.0698134L80.7274 4.32169L80.6644 10.6767L78.2027 11.2185L75.7994 10.1172L70.2476 5.16887L67.8554 3.51602L66.9169 5.50476L68.8682 7.34182L73.2349 10.7857L78.4498 15.4471L79.5891 17.6522L79.521 19.7554L79.2943 26.5815L79.0326 33.1202L79.095 38.4984L78.3698 41.3656" sodipodi:nodetypes="cccccccccccccccccccccccccccccccccccccccccccccccccccccccccccccccccccccccccccccccccccccccccccccccccccccccccccccccccccccccccccccccccccccccccccccccccccccccccccccccccccccccccccccccccccccccccccccccccccccccccccccccccccccccccccccccccccccccccccccccccccccccccccccccccccccccccccccccccccccccccccccccccccccccccccccccccccccccccccccccccccccccccccccccccccccccccccccccccccccccccccccccccccccccccccccccccccccccccccccccccccccccccccccccccccccccccccccccccccccccccccccccccccccccccccccccccccccccccccccccccccccccccccccccccccccccccccccccccccccccccccccccccccccccccccccccccccccccccccccccccccccccccccccccccccccccccccccccccccccccccccccccccccccccccccccccccccccccccccccccccccccccccccccccccccccccccccccc"/><circle id="shape4" transform="matrix(1.99943503641391 -0.00158751389241372 0.00158659709574348 2.0005903866844 378.299263760503 428.892915741425)" r="9.6" cx="9.6" cy="9.6" fill="#ffffff" fill-rule="evenodd" stroke="#4c4c4a" stroke-width="0.4608" stroke-linecap="square" stroke-linejoin="bevel"/><circle id="shape02" transform="matrix(1.99943503641391 -0.00158751389241372 0.00158659709574348 2.00059038668441 277.261802846263 413.587018038639)" r="9.6" cx="9.6" cy="9.6" fill="#ffffff" fill-rule="evenodd" stroke="#4c4c4a" stroke-width="0.4608" stroke-linecap="square" stroke-linejoin="bevel"/><circle id="shape03" transform="matrix(1.99943503641391 -0.00158751389241372 0.00158659709574348 2.00059038668441 451.925060146579 430.824212156381)" r="9.6" cx="9.6" cy="9.6" fill="#ffffff" fill-rule="evenodd" stroke="#4c4c4a" stroke-width="0.4608" stroke-linecap="square" stroke-linejoin="bevel"/><circle id="shape04" transform="matrix(1.99943503641391 -0.00158751389241372 0.00158659709574348 2.00059038668441 512.629603809993 482.757259166262)" r="9.6" cx="9.6" cy="9.6" fill="#ffffff" fill-rule="evenodd" stroke="#4c4c4a" stroke-width="0.4608" stroke-linecap="square" stroke-linejoin="bevel"/><circle id="shape05" transform="matrix(1.99943503641391 -0.00158751389241372 0.00158659709574348 2.00059038668441 551.603658682259 425.197888076112)" r="9.6" cx="9.6" cy="9.6" fill="#ffffff" fill-rule="evenodd" stroke="#4c4c4a" stroke-width="0.4608" stroke-linecap="square" stroke-linejoin="bevel"/><circle id="shape06" transform="matrix(1.99943503641391 -0.00158751389241372 0.00158659709574348 2.00059038668441 523.055478116362 370.386788880717)" r="9.6" cx="9.6" cy="9.6" fill="#ffffff" fill-rule="evenodd" stroke="#4c4c4a" stroke-width="0.4608" stroke-linecap="square" stroke-linejoin="bevel"/><circle id="shape07" transform="matrix(1.99943503641391 -0.00158751389241372 0.00158659709574348 2.00059038668441 569.67735262779 308.472570524361)" r="9.6" cx="9.6" cy="9.6" fill="#ffffff" fill-rule="evenodd" stroke="#4c4c4a" stroke-width="0.4608" stroke-linecap="square" stroke-linejoin="bevel"/><circle id="shape08" transform="matrix(1.99943503641391 -0.00158751389241371 0.00158659709574348 2.0005903866844 482.665454226772 318.428244027047)" r="9.6" cx="9.6" cy="9.6" fill="#ffffff" fill-rule="evenodd" stroke="#4c4c4a" stroke-width="0.468" stroke-linecap="square" stroke-linejoin="bevel"/><circle id="shape09" transform="matrix(1.99943503641391 -0.00158751389241372 0.00158659709574348 2.00059038668441 411.104152495597 267.313268145498)" r="9.6" cx="9.6" cy="9.6" fill="#ffffff" fill-rule="evenodd" stroke="#4c4c4a" stroke-width="0.4608" stroke-linecap="square" stroke-linejoin="bevel"/><circle id="shape010" transform="matrix(1.99943503641391 -0.00158751389241372 0.00158659709574348 2.00059038668441 375.214092158026 329.852762620073)" r="9.6" cx="9.6" cy="9.6" fill="#ffffff" fill-rule="evenodd" stroke="#4c4c4a" stroke-width="0.4608" stroke-linecap="square" stroke-linejoin="bevel"/><circle id="shape011" transform="matrix(1.99943503641391 -0.00158751389241372 0.00158659709574348 2.00059038668441 280.358431034211 308.338775677357)" r="9.6" cx="9.6" cy="9.6" fill="#ffffff" fill-rule="evenodd" stroke="#4c4c4a" stroke-width="0.4608" stroke-linecap="square" stroke-linejoin="bevel"/><circle id="shape012" transform="matrix(1.99943503641391 -0.00158751389241372 0.00158659709574348 2.00059038668441 310.88959534233 371.369268471212)" r="9.6" cx="9.6" cy="9.6" fill="#ffffff" fill-rule="evenodd" stroke="#4c4c4a" stroke-width="0.4608" stroke-linecap="square" stroke-linejoin="bevel"/><circle id="shape013" transform="matrix(1.99943503641391 -0.00158751389241372 0.00158659709574348 2.00059038668441 278.623801492946 461.339837678714)" r="9.6" cx="9.6" cy="9.6" fill="#000000" fill-rule="evenodd" stroke="#000000" stroke-width="0.2208" stroke-linecap="square" stroke-linejoin="bevel"/><circle id="shape014" transform="matrix(1.99943503641391 -0.00158751389241372 0.00158659709574348 2.00059038668441 331.007837625574 408.864073326191)" r="9.6" cx="9.6" cy="9.6" fill="#000000" fill-rule="evenodd" stroke="#000000" stroke-width="0.2208" stroke-linecap="square" stroke-linejoin="bevel"/><circle id="shape015" transform="matrix(1.99943503641391 -0.00158751389241372 0.00158659709574348 2.00059038668441 369.192193738 495.447982165672)" r="9.6" cx="9.6" cy="9.6" fill="#000000" fill-rule="evenodd" stroke="#000000" stroke-width="0.2208" stroke-linecap="square" stroke-linejoin="bevel"/><circle id="shape016" transform="matrix(1.99943503641391 -0.00158751389241372 0.00158659709574348 2.00059038668441 465.214425423885 493.950461970452)" r="9.6" cx="9.6" cy="9.6" fill="#000000" fill-rule="evenodd" stroke="#000000" stroke-width="0.2208" stroke-linecap="square" stroke-linejoin="bevel"/><circle id="shape017" transform="matrix(1.99943503641391 -0.00158751389241372 0.00158659709574348 2.00059038668441 554.165966285765 473.218404339035)" r="9.6" cx="9.6" cy="9.6" fill="#000000" fill-rule="evenodd" stroke="#000000" stroke-width="0.2208" stroke-linecap="square" stroke-linejoin="bevel"/><circle id="shape018" transform="matrix(1.99943503641391 -0.00158751389241372 0.00158659709574348 2.00059038668441 505.534823850911 421.016785545149)" r="9.6" cx="9.6" cy="9.6" fill="#000000" fill-rule="evenodd" stroke="#000000" stroke-width="0.2208" stroke-linecap="square" stroke-linejoin="bevel"/><circle id="shape019" transform="matrix(1.99943503641391 -0.00158751389241372 0.00158659709574348 2.00059038668441 479.010933541047 385.937017012598)" r="9.6" cx="9.6" cy="9.6" fill="#000000" fill-rule="evenodd" stroke="#000000" stroke-width="0.2208" stroke-linecap="square" stroke-linejoin="bevel"/><circle id="shape020" transform="matrix(1.99943503641391 -0.00158751389241372 0.00158659709574348 2.00059038668441 367.024462589558 388.501821173521)" r="9.6" cx="9.6" cy="9.6" fill="#000000" fill-rule="evenodd" stroke="#000000" stroke-width="0.2208" stroke-linecap="square" stroke-linejoin="bevel"/><circle id="shape021" transform="matrix(1.99943503641391 -0.00158751389241372 0.00158659709574348 2.00059038668441 442.923665624135 339.474817697795)" r="9.6" cx="9.6" cy="9.6" fill="#000000" fill-rule="evenodd" stroke="#000000" stroke-width="0.2208" stroke-linecap="square" stroke-linejoin="bevel"/><circle id="shape022" transform="matrix(1.99943503641391 -0.00158751389241372 0.00158659709574348 2.00059038668441 268.746770718652 355.109862118062)" r="9.6" cx="9.6" cy="9.6" fill="#000000" fill-rule="evenodd" stroke="#000000" stroke-width="0.2208" stroke-linecap="square" stroke-linejoin="bevel"/><circle id="shape023" transform="matrix(1.99943503641391 -0.00158751389241372 0.00158659709574348 2.00059038668441 329.572804054508 313.580204899351)" r="9.6" cx="9.6" cy="9.6" fill="#000000" fill-rule="evenodd" stroke="#000000" stroke-width="0.2208" stroke-linecap="square" stroke-linejoin="bevel"/><circle id="shape024" transform="matrix(1.99943503641391 -0.00158751389241372 0.00158659709574348 2.00059038668441 524.113016162948 301.280027695629)" r="9.6" cx="9.6" cy="9.6" fill="#000000" fill-rule="evenodd" stroke="#000000" stroke-width="0.2208" stroke-linecap="square" stroke-linejoin="bevel"/><circle id="shape025" transform="matrix(1.99943503641391 -0.00158751389241372 0.00158659709574348 2.00059038668441 456.364153570642 278.897419654478)" r="9.6" cx="9.6" cy="9.6" fill="#000000" fill-rule="evenodd" stroke="#000000" stroke-width="0.2208" stroke-linecap="square" stroke-linejoin="bevel"/><circle id="shape026" transform="matrix(1.99943503641391 -0.00158751389241372 0.00158659709574348 2.00059038668441 369.398249680126 282.982808007384)" r="9.6" cx="9.6" cy="9.6" fill="#000000" fill-rule="evenodd" stroke="#000000" stroke-width="0.2208" stroke-linecap="square" stroke-linejoin="bevel"/><circle id="shape027" transform="matrix(1.99943503641391 -0.00158751389241372 0.00158659709574348 2.00059038668441 565.081636920249 355.913298878729)" r="9.6" cx="9.6" cy="9.6" fill="#000000" fill-rule="evenodd" stroke="#000000" stroke-width="0.2208" stroke-linecap="square" stroke-linejoin="bevel"/><circle id="shape032" transform="matrix(1.99943503641391 -0.00158751389241372 0.00158659709574348 2.0005903866844 325.33201468997 468.408181616793)" r="9.6" cx="9.6" cy="9.6" fill="#ffffff" fill-rule="evenodd" stroke="#4c4c4a" stroke-width="0.4608" stroke-linecap="square" stroke-linejoin="bevel"/><path id="shape0" transform="matrix(1.99943566591422 0 0 2.00059101654846 387.840211617453 79.4018816809696)" fill="#deca43" fill-rule="evenodd" stroke="#000000" stroke-width="1.2" stroke-linecap="square" stroke-linejoin="bevel" d="M124.738 80.9366L124.862 138.516C137.728 121.329 144.305 101.252 144.593 78.286C144.881 55.3198 138.629 36.5813 125.837 22.0706C129.758 15.5311 134.846 9.5763 140.368 3.80711C133.807 -0.533235 124.778 -0.294825 115.36 0.375041C106.83 1.45887 100.101 5.24758 93.293 8.86327C79.9817 11.5039 66.6014 13.7525 50.7831 15.5742C24.5367 16.8044 9.20349 20.6144 4.7836 27.0042C-1.84624 36.5889 -0.74005 41.0116 3.00784 49.642C5.50643 55.3956 12.9563 66.5918 15.6169 68.7463C17.3907 70.1827 21.6644 70.4355 28.438 69.5047C31.525 73.2453 34.1028 77.0128 35.3236 80.883C36.1374 83.4631 36.5526 87.909 36.5693 94.2205C37.5234 95.1561 39.0869 95.5988 40.4303 95.7067C47.6907 90.8498 53.7028 87.3513 58.4665 85.2114C63.2302 83.0714 73.3199 79.7159 88.7356 75.145L87.0721 80.5076Z" sodipodi:nodetypes="cczccccczzzczcczccc"/><path id="shape01" transform="matrix(2.1193473179962 0 0 2.12057195818331 612.327497913468 369.016723298207)" fill="#deca43" fill-rule="evenodd" stroke="#000000" stroke-width="1.2" stroke-linecap="square" stroke-linejoin="bevel" d="M12.0556 0.000870603C12.3643 -0.0297093 15.0917 0.754592 15.4724 0.889211C35.8157 11.0918 20.2774 29.743 3.05366 25.4461C1.23498 24.9959 -0.578942 20.5619 0.175304 18.4709C2.09984 13.4849 10.2169 15.511 11.9828 10.8487C12.0114 6.74715 11.8665 3.83007 11.9209 0.0848206" sodipodi:nodetypes="cccccc"/><path id="shape1" transform="matrix(2.1193473179962 0 0 2.12057195818331 616.261692721174 413.09977695046)" fill="#deca43" fill-rule="evenodd" stroke="#000000" stroke-width="1.2" stroke-linecap="square" stroke-linejoin="bevel" d="M20.2084 0.0459651C32.2482 5.07915 23.6803 18.9951 10.8189 19.5926C4.03453 19.5767 0.819944 18.0005 0.400436 16.0803C0.0196521 12.677 -0.943999 12.3309 2.76418 10.0868C5.93848 8.56665 13.8542 8.90625 10.6079 5.1278C15.522 3.76024 18.0658 1.76617 20.0923 0" sodipodi:nodetypes="cccccc"/><path id="shape21" transform="matrix(2.1193473179962 0 0 2.12057195818331 622.757891938981 443.312952022475)" fill="#deca43" fill-rule="evenodd" stroke="#000000" stroke-width="1.2" stroke-linecap="square" stroke-linejoin="bevel" d="M20.068 0.242856C22.2329 0.877388 22.6567 3.57865 22.2732 5.33349C18.8186 17.003 -3.05379 17.1057 0.360551 8.18333C1.00006 6.70441 2.97962 5.98877 5.87019 5.35523C10.5658 5.73071 17.1063 3.4739 19.7662 0.27733C20.1436 -0.171028 19.6978 0.0589951 20.3466 0.0589951" sodipodi:nodetypes="cccccc"/><path id="shape31" transform="matrix(2.1193473179962 0 0 2.12057195818331 613.460147446737 456.093219746596)" fill="#e89048" fill-rule="evenodd" stroke="#000000" stroke-width="0.96" stroke-linecap="square" stroke-linejoin="bevel" d="M0.23279 0.114913C5.00889 5.83448 8.6357 -0.417409 9.51781 5.17108C8.33033 9.31111 -0.963999 6.50033 0.0819087 0" sodipodi:nodetypes="ccc"/><path id="shape41" transform="matrix(2.1193473179962 0 0 2.12057195818331 606.929574400821 430.84748968941)" fill="#e89048" fill-rule="evenodd" stroke="#000000" stroke-width="0.96" stroke-linecap="square" stroke-linejoin="bevel" d="M0.25211 0.114913C3.55663 5.91477 6.12986 3.09493 10.338 4.4816C15.9704 6.70852 7.95844 12.2069 2.68943 6.79135C1.72764 5.2836 -0.606823 3.48587 0.147653 0" sodipodi:nodetypes="cccc"/><path id="shape5" transform="matrix(2.1193473179962 0 0 2.12057195818331 604.048098910858 400.217177239895)" fill="#e89048" fill-rule="evenodd" stroke="#000000" stroke-width="0.96" stroke-linecap="square" stroke-linejoin="bevel" d="M0.240206 0.149387C3.77257 8.41965 10.1814 2.29615 12.009 5.60775C14.8097 12.0271 -1.91279 12.1032 0.182175 0" sodipodi:nodetypes="ccc"/><path id="shape6" transform="matrix(1.99943566591422 0 0 2.00059101654846 399.723382723134 238.222991322734)" fill="none" stroke="#e3e560" stroke-width="1.2" stroke-linecap="square" stroke-linejoin="bevel" d="M0.162488 0.0919303C0.114808 0.0801284 0.0453514 0.0449021 0 0" sodipodi:nodetypes="cc"/><path id="shape7" transform="matrix(1.99943566591422 0 0 2.00059101654846 391.438842174176 238.245980683599)" fill="none" stroke="#e3e560" stroke-width="1.2" stroke-linecap="square" stroke-linejoin="bevel" d="M0.0348188 0.0229826C0.00782951 0.0229826 0 0.0323345 0 0" sodipodi:nodetypes="cc"/><path id="shape8" transform="matrix(1.99943566591422 0 0 2.00059101654846 336.956656437397 214.041173628904)" fill="#deca43" fill-rule="evenodd" stroke="#000000" stroke-width="1.2" stroke-linecap="square" stroke-linejoin="bevel" d="M27.2024 12.7308L31.9609 12.547C31.124 10.4654 25.803 0.113646 17.5965 0.00236604C9.38998 -0.108914 3.83584 3.7218 1.47294 7.96592C-0.889951 12.21 -0.852768 23.1124 4.89748 27.5367C10.6477 31.961 14.8144 28.7804 16.4793 27.4664C18.9766 25.4955 18.9492 23.9902 19.3399 22.0324C20.0378 18.5352 18.3596 13.8116 22.72 12.3923C24.5866 11.7848 26.0808 11.8976 27.2024 12.7308Z" sodipodi:nodetypes="cczzzzssc"/><path id="shape9" transform="matrix(1.99943566591422 0 0 2.00059101654846 291.047833710922 217.738100156177)" fill="#deca43" fill-rule="evenodd" stroke="#000000" stroke-width="1.2" stroke-linecap="square" stroke-linejoin="bevel" d="M25.6207 3.66697C22.8473 1.1248 19.2047 -0.0955788 14.693 0.00583577C10.1814 0.10725 6.03631 2.41614 2.87636 6.06838C-0.283584 9.72062 -0.466869 11.7266 0.554078 18.6414C1.57502 25.5563 4.0954 27.4745 7.94936 28.5508C13.7303 30.1653 16.2946 26.9634 17.8198 24.6177C20.1077 21.0991 17.8735 19.1714 18.653 16.7572C19.4325 14.343 22.9839 15.8061 23.0775 13.2185C23.1711 10.6308 23.4845 6.813 25.6207 3.66697Z" sodipodi:nodetypes="czzzzzzzc"/><path id="shape10" transform="matrix(1.99943566591422 0 0 2.00059101654846 267.596011476676 217.9177388932)" fill="#deca43" fill-rule="evenodd" stroke="#000000" stroke-width="1.2" stroke-linecap="square" stroke-linejoin="bevel" d="M17.4369 3.12731C13.5678 0.174674 10.1439 -0.687173 7.16537 0.541768C2.69754 2.38518 0.974635 8.32256 0.329279 11.6883C-0.638756 16.737 0.662649 20.3407 2.47644 23.5703C5.19712 28.4147 7.96696 28.3619 9.69554 28.2243C11.4241 28.0866 12.9059 26.8992 14.1407 24.662C11.9829 19.4322 11.0931 15.3222 11.4713 12.3318C11.8495 9.34147 13.8381 6.2733 17.4369 3.12731Z" sodipodi:nodetypes="czzzzczc"/><path id="shape11" transform="matrix(1.99943566591422 0 0 2.00059101654846 274.79601132729 256.891785687066)" fill="#e89048" fill-rule="evenodd" stroke="#000000" stroke-width="0.96" stroke-linecap="square" stroke-linejoin="bevel" d="M3.632 1.05581e-05C6.02937 -0.00612819 6.84972 2.66569 6.44071 5.32048C6.16804 7.09033 4.72587 8.37367 5.50061 11.227C6.0171 13.1292 6.9456 14.6997 8.28611 15.9384C4.6094 14.7682 2.09471 12.6998 0.742032 9.73313C-1.28698 5.28312 1.23462 0.00614931 3.632 1.05581e-05Z" sodipodi:nodetypes="czzczz"/><path id="shape028" transform="matrix(1.99943566591422 0 0 2.00059101654846 298.392654053212 254.913753287006)" fill="#e89048" stroke="#000000" stroke-width="0.96" stroke-linecap="square" stroke-linejoin="bevel" d="M3.79818 1.05581e-05C6.19555 -0.00612819 7.0159 2.66569 6.60689 5.32048C6.33422 7.09033 4.91526 8.37367 5.69 11.227C6.20649 13.1292 7.1582 16.343 8.49871 17.5817C4.822 16.4115 2.06358 12.7228 0.710905 9.75611C-1.31811 5.3061 1.4008 0.00614931 3.79818 1.05581e-05Z" sodipodi:nodetypes="czzczz"/><path id="shape031" transform="matrix(1.99943566591422 0 0 2.00059101654846 346.666330689305 248.174520225449)" fill="#e89048" stroke="#000000" stroke-width="0.96" stroke-linecap="square" stroke-linejoin="bevel" d="M4.07589 0.00121161C6.90271 -0.0738748 8.46585 3.35637 8.05684 6.01116C7.78417 7.78101 5.66883 10.179 5.9445 13.0668C6.22017 15.9546 6.32172 17.2749 7.66223 18.5136C4.4085 17.011 2.83639 15.0631 0.756492 10.4008C-1.3234 5.73851 1.24908 0.0762981 4.07589 0.00121161Z" sodipodi:nodetypes="czzczz"/><path id="shape12" transform="matrix(1.99943566591422 0 0 2.00059101654846 409.465328401267 141.569889265781)" fill="none" stroke="#000000" stroke-width="1.2" stroke-linecap="square" stroke-linejoin="bevel" d="M13.0095 0.0014729C9.04467 -0.0587392 4.84799 1.7339 2.46219 4.13834C-1.1165 7.74499 -0.352009 11.8838 1.95152 12.9636C3.4872 13.6835 6.00587 14.799 9.25573 14.0362C11.4223 13.5276 16.4909 11.3934 17.3182 8.53567C17.8698 6.63049 18.048 3.40599 14.4797 3.58675C12.1008 3.70726 6.87414 8.27093 4.0097 8.18327" sodipodi:nodetypes="czzzzzc"/><path id="shape13" transform="matrix(1.99943566591422 0 0 2.00059101654846 502.106744065242 114.825215757764)" fill="#f6fdff" fill-rule="evenodd" stroke="#000000" stroke-width="1.2" stroke-linecap="square" stroke-linejoin="bevel" d="M0.0150897 15.0571C0.504844 11.4566 8.93492 9.40163 12.0043 7.42688C16.6082 4.46476 21.4058 -0.401946 24.2186 0.0264973C28.4377 0.669162 31.9134 6.64759 31.4449 11.1501C30.9764 15.6525 27.431 18.6424 22.1273 20.6648C16.8236 22.6873 13.5842 22.6626 10.0356 22.3502C4.71262 21.8817 -0.311413 17.4574 0.0150897 15.0571Z" sodipodi:nodetypes="czzzzzz"/><path id="shape14" transform="matrix(1.99943566591422 0 0 2.00059101654846 502.880670286305 130.793974285358)" fill="#000000" fill-rule="evenodd" stroke="#000000" stroke-width="1.2" stroke-linecap="square" stroke-linejoin="bevel" d="M19.6423 7.11765C19.1006 1.01899 14.0869 -0.153445 10.5717 0.0150935C7.13851 2.19577 2.27103 3.01998 0 6.27496C-6.66134e-16 11.5769 4.1626 12.7647 9.442 14.0057C12.4306 14.0292 14.6775 14.286 16.5744 13.967C18.5023 12.2383 19.6625 9.82658 19.6423 7.11765Z" sodipodi:nodetypes="cccccc"/><ellipse id="shape15" transform="matrix(1.99943566591422 0 0 2.00059101654846 517.928018763606 146.005956479873)" rx="3.12" ry="2.56255655614596" cx="3.12" cy="2.56255655614596" fill="#ffffff" fill-rule="evenodd" stroke="#000000" stroke-width="1.2" stroke-linecap="square" stroke-linejoin="bevel"/><path id="shape16" transform="matrix(1.98510220315856 0.239119734618418 -0.238981641857446 1.98624927136814 633.471826507071 122.711612628006)" fill="none" stroke="#000000" stroke-width="1.2" stroke-linecap="square" stroke-linejoin="bevel" d="M0 4.0385L2.60513 0" sodipodi:nodetypes="cc"/><path id="shape17" transform="matrix(1.99943566591422 0 0 2.00059101654846 599.367031660162 92.0453157750897)" fill="none" stroke="#000000" stroke-width="1.2" stroke-linecap="square" stroke-linejoin="bevel" d="M0 11.3689C1.6178 7.27386 5.27377 4.14057 10.9679 1.96903C16.6621 -0.202509 22.0242 -0.577891 27.0542 0.842882" sodipodi:nodetypes="czc"/><path id="shape18" transform="matrix(1.99943566591422 0 0 2.00059101654846 445.170827042205 171.304977037455)" fill="none" stroke="#000000" stroke-width="1.2" stroke-linecap="square" stroke-linejoin="bevel" d="M0 23.5171C3.88484 23.5591 11.0227 22.0231 21.4136 18.9091C36.9999 14.2381 47.2515 2.78335 57.068 0.856296C63.6124 -0.428406 67.0362 -0.267528 67.3396 1.33893" sodipodi:nodetypes="czzc"/><path id="shape19" transform="matrix(1.99943566591422 0 0 2.00059101654846 509.777522328921 174.944389453811)" fill="#f6fdff" fill-rule="evenodd" stroke="#000000" stroke-width="0.72" stroke-linecap="square" stroke-linejoin="bevel" d="M0 0.0555658C3.04749 2.69925 5.76574 6.32335 4.0622 10.3518C6.95296 8.43482 9.82115 6.49056 12.8907 4.78997C9.64103 0.724484 4.31509 -0.263596 0 0.0555658Z" sodipodi:nodetypes="cccc"/><path id="shape20" transform="matrix(1.99943566591422 0 0 2.00059101654846 473.030694762007 208.066639555891)" fill="#f6fdff" fill-rule="evenodd" stroke="#000000" stroke-width="0.72" stroke-linecap="square" stroke-linejoin="bevel" d="M0 2.9705C2.10408 8.47856 4.90589 10.9783 10.9505 12.2172C8.38187 7.59161 9.01894 4.70216 10.0472 0C6.06774 1.58547 3.93872 1.90563 0 2.9705Z" sodipodi:nodetypes="cccc"/><path id="shape211" transform="matrix(1.99943566591422 0 0 2.00059101654846 565.641734599359 185.22689198827)" fill="none" stroke="#000000" stroke-width="1.2" stroke-linecap="square" stroke-linejoin="bevel" d="M0 22.1897C11.7221 18.2357 22.0523 13.5328 24.4544 5.91801C24.0366 3.08691 20.1833 1.26554 17.7692 0" sodipodi:nodetypes="ccc"/><path id="shape22" transform="matrix(1.99941009367629 -0.0101181840378598 0.0101123407394301 2.00056542953391 408.137915962122 93.9135664192966)" fill="#e89048" fill-rule="evenodd" stroke="#000000" stroke-width="1.2" stroke-linecap="square" stroke-linejoin="bevel" d="M0 15.3524C6.81178 8.57688 14.7972 3.25398 24.4544 0C24.2328 3.30521 23.4616 6.6851 24.7098 9.79057C14.4426 10.3616 6.97409 12.632 0 15.3524Z" sodipodi:nodetypes="cccc"/><path id="shape041" transform="matrix(1.9922545451678 0.169404681789993 -0.169306849796882 1.99340574627497 466.749254740209 81.2623393435242)" fill="#e89048" stroke="#000000" stroke-width="1.2" stroke-linecap="square" stroke-linejoin="bevel" d="M0 15.6966C6.81178 8.92111 15.1813 3.0466 25.1124 0C24.6728 3.18291 23.2092 7.91888 25.0312 10.7649C14.263 13.7407 6.56611 14.6536 0 15.6966Z" sodipodi:nodetypes="cccc"/><path id="shape051" transform="matrix(1.99943566591422 0 0 2.00059101654846 523.039137764976 74.330829506996)" fill="#e89048" stroke="#000000" stroke-width="1.2" stroke-linecap="square" stroke-linejoin="bevel" d="M0 15.7661C6.52195 8.8778 17.2945 0.42851 26.6364 0C25.0197 3.32847 22.2135 8.69253 24.1759 11.7096C14.0726 13.983 7.0866 14.3681 0 15.7661Z" sodipodi:nodetypes="cccc"/><path id="shape061" transform="matrix(0.87750045275059 1.79762822479841 -1.79659008612215 0.878007506176673 670.079697680331 113.460173753773)" fill="#e89048" stroke="#000000" stroke-width="1.2" stroke-linecap="square" stroke-linejoin="bevel" d="M0 15.5051C5.14703 6.24105 24.1325 -2.72604 38.3308 0.77505C34.8533 4.80173 30.2872 9.97161 29.27 14.6084C18.0997 13.0661 6.83388 13.2929 0 15.5051Z" sodipodi:nodetypes="cccc"/><path id="shape071" transform="matrix(-0.0186095450344621 2.0005043614009 -1.99934906081041 -0.0186202983435208 706.350994708468 206.479674679891)" fill="#e89048" stroke="#000000" stroke-width="1.2" stroke-linecap="square" stroke-linejoin="bevel" d="M0 15.4253C5.53529 6.8109 23.8851 -2.28118 37.6626 0.515718C34.1851 4.5424 30.1221 10.671 29.1049 15.3078C17.9202 14.2635 6.80322 14.2792 0 15.4253Z" sodipodi:nodetypes="cccc"/><path id="shape081" transform="matrix(-0.77216364876368 1.84538301148068 -1.84431729419259 -0.772609834543271 698.890546661265 299.077831488437)" fill="#e89048" stroke="#000000" stroke-width="1.2" stroke-linecap="square" stroke-linejoin="bevel" d="M0 15.4166C6.34241 6.71397 23.1715 -2.27692 36.949 0.51998C32.0923 4.41541 30.1221 10.6623 29.1049 15.2991C18.813 13.4657 10.0538 14.023 0 15.4166Z" sodipodi:nodetypes="cccc"/><path id="shape23" transform="matrix(1.99943566591422 0 0 2.00059101654846 154.901894546329 398.968551207269)" fill="#deca43" fill-rule="evenodd" stroke="#000000" stroke-width="1.2" stroke-linecap="square" stroke-linejoin="bevel" d="M38.7785 1.08904L38.674 24.4087C35.0986 23.8042 32.8534 25.1065 31.9386 28.3157C30.5663 33.1295 42.5519 41.3511 47.3053 45.6752C54.4353 52.1614 55.5228 59.6809 55.8939 63.4637C56.1413 65.9856 53.9748 70.6281 49.3944 77.3912C51.4719 69.7322 50.528 63.5269 46.5625 58.7753C40.6142 51.6478 20.5234 48.7432 14.003 44.3269C4.2224 37.7025 -0.281401 27.5351 0.013586 21.4516C0.456066 12.3263 12.8641 2.26375 18.7848 0.951144C24.7055 -0.361458 31.3701 -0.315493 38.7785 1.08904Z" sodipodi:nodetypes="cczzzczzzzc"/><path id="shape24" transform="matrix(1.99943566591422 0 0 2.00059101654846 188.580111925887 378.072636823902)" fill="#e89048" fill-rule="evenodd" stroke="#000000" stroke-width="1.2" stroke-linecap="square" stroke-linejoin="bevel" d="M22.0403 7.25813C13.1152 0.882784 6.33322 -0.437892 0 0.113004C4.29145 3.73229 7.75189 7.36095 6.62718 10.6735C12.0661 10.0726 17.0841 10.3313 21.843 11.0757Z" sodipodi:nodetypes="ccccc"/><path id="shape25" transform="matrix(1.78711424836515 0.897159427442362 -0.896641313692506 1.78814691153882 155.461104882771 388.926632968388)" fill="#e89048" fill-rule="evenodd" stroke="#000000" stroke-width="1.2" stroke-linecap="square" stroke-linejoin="bevel" d="M16.7208 0C3.86348 2.33312 0.179771 9.22467 0 21.8181C3.48818 16.8848 6.33248 15.1105 10.9641 14.6246C11.8333 7.06531 15.2765 2.50035 16.7208 0Z" sodipodi:nodetypes="cccc"/><path id="shape26" transform="matrix(1.465814588377 1.36061316663588 -1.35982740619208 1.46666159228077 154.887197768445 438.795317966605)" fill="#e89048" fill-rule="evenodd" stroke="#000000" stroke-width="1.2" stroke-linecap="square" stroke-linejoin="bevel" d="M0 0C0.768908 9.68705 6.21141 13.9528 14.0669 20.6212C13.4093 16.4033 11.8449 13.9831 15.0532 8.24848C7.82341 6.9534 4.32474 4.22401 0 0Z" sodipodi:nodetypes="cccc"/><path id="shape029" transform="matrix(2.1193473179962 0 0 2.12057195818331 369.871848263566 220.625175843932)" fill="#e3e560" fill-rule="evenodd" stroke-opacity="0" stroke="#000000" stroke-width="0" stroke-linecap="square" stroke-linejoin="bevel" d="M7.28644 3.2789C7.28644 1.46801 5.65531 1.10885e-16 3.64322 0C1.63112 -1.10885e-16 2.46411e-16 1.46801 0 3.2789C-2.46411e-16 5.08979 1.63112 6.5578 3.64322 6.5578C5.65531 6.5578 7.28644 5.08979 7.28644 3.2789Z" sodipodi:nodetypes="ccccc"/><path id="shape0110" transform="matrix(2.11587003558493 0.121425168042188 -0.121355044441837 2.11709266646487 650.08348853613 379.290269511911)" fill="#e3e560" fill-rule="evenodd" stroke-opacity="0" stroke="#000000" stroke-width="0" stroke-linecap="square" stroke-linejoin="bevel" d="M5.52 2.64C4.56748 1.74894 3.56366 0.428958 2.76 0C1.23569 -8.92787e-17 1.86674e-16 1.18197 0 2.64C-1.86674e-16 4.09803 1.23569 5.28 2.76 5.28C4.28431 5.28 5.52 4.09803 5.52 2.64Z" sodipodi:nodetypes="ccccc"/><path id="shape110" transform="matrix(2.1193473179962 0 0 2.12057195818331 657.409516814488 394.550093452712)" fill="#e3e560" fill-rule="evenodd" stroke-opacity="0" stroke="#000000" stroke-width="0" stroke-linecap="square" stroke-linejoin="bevel" d="M2.16 1.08C2.16 0.483532 1.67647 3.65231e-17 1.08 0C0.483532 -3.65231e-17 7.30462e-17 0.483532 0 1.08C-7.30462e-17 1.67647 0.483532 2.16 1.08 2.16C1.67647 2.16 2.16 1.67647 2.16 1.08Z" sodipodi:nodetypes="ccccc"/><path id="shape27" transform="matrix(2.1193473179962 0 0 2.12057195818331 642.711730204431 378.799488044154)" fill="#e3e560" fill-rule="evenodd" stroke-opacity="0" stroke="#000000" stroke-width="0" stroke-linecap="square" stroke-linejoin="bevel" d="M2.4 1.08C2.4 0.483532 1.86274 3.65231e-17 1.2 0C0.537258 -3.65231e-17 8.11625e-17 0.483532 0 1.08C-8.11625e-17 1.67647 0.537258 2.16 1.2 2.16C1.86274 2.16 2.4 1.67647 2.4 1.08Z" sodipodi:nodetypes="ccccc"/><path id="shape32" transform="matrix(0.852493834598951 1.9414529523038 -1.94033175417723 0.85298643824171 654.135692774101 418.889936153238)" fill="#e3e560" fill-rule="evenodd" stroke-opacity="0" stroke="#000000" stroke-width="0" stroke-linecap="square" stroke-linejoin="bevel" d="M3.24 3.12C3.24 1.39687 1.84313 1.05511e-16 0.12 0C0.0168717 -1.05511e-16 2.22045e-16 1.42687 0 3.15C-2.22045e-16 4.87313 0.0468717 6.3 0.12 6.24C1.84313 6.24 3.24 4.84313 3.24 3.12Z" sodipodi:nodetypes="ccccc"/><circle id="shape42" transform="matrix(2.1193473179962 0 0 2.12057195818331 650.411578503926 401.16108269334)" r="1.23055092866051" cx="1.23055092866051" cy="1.23055092866051" fill="#e3e560" fill-rule="evenodd" stroke-opacity="0" stroke="#000000" stroke-width="0" stroke-linecap="square" stroke-linejoin="bevel"/><path id="shape0210" transform="matrix(2.1193473179962 0 0 2.12057195818331 660.742133411497 420.191824973388)" fill="#e3e560" fill-rule="evenodd" stroke-opacity="0" stroke="#000000" stroke-width="0" stroke-linecap="square" stroke-linejoin="bevel" d="M2.4 1.08C2.4 0.483532 1.86274 3.65231e-17 1.2 0C0.537258 -3.65231e-17 8.11625e-17 0.483532 0 1.08C-8.11625e-17 1.67647 0.537258 2.16 1.2 2.16C1.86274 2.16 2.4 1.67647 2.4 1.08Z" sodipodi:nodetypes="ccccc"/><ellipse id="shape033" transform="matrix(2.1193473179962 0 0 2.12057195818331 655.049342972237 430.004522896621)" rx="2.28" ry="2.27999999999999" cx="2.28" cy="2.27999999999999" fill="#e3e560" fill-rule="evenodd" stroke-opacity="0" stroke="#000000" stroke-width="0" stroke-linecap="square" stroke-linejoin="bevel"/><path id="shape042" transform="matrix(-0.0387914507614631 2.12021671383928 -2.11899227880743 -0.0388138659499107 664.800910002901 457.067202871696)" fill="#e3e560" fill-rule="evenodd" stroke-opacity="0" stroke="#000000" stroke-width="0" stroke-linecap="square" stroke-linejoin="bevel" d="M4.18583 2.00192C3.46353 1.32623 2.70233 0.32528 2.09292 0C0.937028 -6.77003e-17 1.41555e-16 0.896292 0 2.00192C-1.41555e-16 3.10755 0.937028 4.00384 2.09292 4.00384C3.24881 4.00384 4.18583 3.10755 4.18583 2.00192Z" sodipodi:nodetypes="ccccc"/><path id="shape052" transform="matrix(2.1193473179962 0 0 2.12057195818331 660.942494989579 447.040859735336)" fill="#e3e560" fill-rule="evenodd" stroke-opacity="0" stroke="#000000" stroke-width="0" stroke-linecap="square" stroke-linejoin="bevel" d="M2.4 1.08C2.4 0.483532 1.86274 3.65231e-17 1.2 0C1.21226 0.045 0.0225 1.10228 0 1.08C-8.11625e-17 1.67647 0.537258 2.16 1.2 2.16C1.86274 2.16 2.4 1.67647 2.4 1.08Z" sodipodi:nodetypes="ccccc"/><path id="shape062" transform="matrix(2.1193473179962 0 0 2.12057195818331 664.600126783406 424.314216860094)" fill="#e3e560" fill-rule="evenodd" stroke-opacity="0" stroke="#000000" stroke-width="0" stroke-linecap="square" stroke-linejoin="bevel" d="M2.4 1.08C2.4 0.483532 1.86274 3.65231e-17 1.2 0C0.537258 -3.65231e-17 8.11625e-17 0.483532 0 1.08C-8.11625e-17 1.67647 0.537258 2.16 1.2 2.16C1.86274 2.16 2.4 1.67647 2.4 1.08Z" sodipodi:nodetypes="ccccc"/><path id="shape072" transform="matrix(2.1193473179962 0 0 2.12057195818331 357.443667178429 220.955927153807)" fill="#e3e560" fill-rule="evenodd" stroke-opacity="0" stroke="#000000" stroke-width="0" stroke-linecap="square" stroke-linejoin="bevel" d="M4.35511 1.9598C4.35511 0.877431 3.38018 6.62761e-17 2.17756 0C0.974922 -6.62761e-17 1.4728e-16 0.877431 0 1.9598C-1.4728e-16 3.04217 0.974922 3.9196 2.17756 3.9196C3.38018 3.9196 4.35511 3.04217 4.35511 1.9598Z" sodipodi:nodetypes="ccccc"/><path id="shape082" transform="matrix(2.1193473179962 0 0 2.12057195818331 315.301307813109 218.915324330441)" fill="#e3e560" fill-rule="evenodd" stroke-opacity="0" stroke="#000000" stroke-width="0" stroke-linecap="square" stroke-linejoin="bevel" d="M7.28644 1.92037C7.28644 0.109485 5.45719 1.21431e-16 3.4451 1.04083e-17C1.433 -1.00614e-16 2.46411e-16 0.109485 0 1.92037C-2.46411e-16 3.73126 1.63112 5.19927 3.64322 5.19927C5.65531 5.19927 7.28644 3.73126 7.28644 1.92037Z" sodipodi:nodetypes="ccccc"/><path id="shape091" transform="matrix(2.1193473179962 0 0 2.12057195818331 308.977346957623 233.919756855192)" fill="#e3e560" fill-rule="evenodd" stroke-opacity="0" stroke="#000000" stroke-width="0" stroke-linecap="square" stroke-linejoin="bevel" d="M4.35511 1.9598C4.35511 0.877431 3.38018 6.62761e-17 2.17756 0C0.974922 -6.62761e-17 1.4728e-16 0.877431 0 1.9598C-1.4728e-16 3.04217 0.974922 3.9196 2.17756 3.9196C3.38018 3.9196 4.35511 3.04217 4.35511 1.9598Z" sodipodi:nodetypes="ccccc"/><path id="shape0101" transform="matrix(2.1193473179962 0 0 2.12057195818331 327.004845873203 235.915015495276)" fill="#e3e560" fill-rule="evenodd" stroke-opacity="0" stroke="#000000" stroke-width="0" stroke-linecap="square" stroke-linejoin="bevel" d="M2.55493 1.14972C2.55493 0.514745 1.98298 3.88809e-17 1.27747 0C0.571938 -3.88809e-17 8.64019e-17 0.514745 0 1.14972C-8.64019e-17 1.78469 0.571938 2.29944 1.27747 2.29944C1.98298 2.29944 2.55493 1.78469 2.55493 1.14972Z" sodipodi:nodetypes="ccccc"/><path id="shape0111" transform="matrix(2.1193473179962 0 0 2.12057195818331 270.862616837466 228.638850435691)" fill="#e3e560" fill-rule="evenodd" stroke-opacity="0" stroke="#000000" stroke-width="0" stroke-linecap="square" stroke-linejoin="bevel" d="M5.04753 2.77335C5.04753 1.31201 3.6888 9.02056e-17 2.0651 0C1.07819 0.466993 0.27137 1.90636 0.0166469 3.3677C-0.110715 4.53187 0.483839 5.41933 2.10755 5.41933C3.73126 5.41933 5.04753 4.23469 5.04753 2.77335Z" sodipodi:nodetypes="ccccc"/><path id="shape0121" transform="matrix(2.1193473179962 0 0 2.12057195818331 286.643453213934 222.366997605466)" fill="#e3e560" fill-rule="evenodd" stroke-opacity="0" stroke="#000000" stroke-width="0" stroke-linecap="square" stroke-linejoin="bevel" d="M2.04339 0.919527C2.04339 0.411685 1.58596 3.10963e-17 1.0217 0C0.457427 -3.10963e-17 6.91029e-17 0.411685 0 0.919527C-6.91029e-17 1.42737 0.457427 1.83905 1.0217 1.83905C1.58596 1.83905 2.04339 1.42737 2.04339 0.919527Z" sodipodi:nodetypes="ccccc"/><path id="shape0131" transform="matrix(2.1193473179962 0 0 2.12057195818331 204.874854304391 405.301038947228)" fill="#e3e560" fill-rule="evenodd" stroke-opacity="0" stroke="#000000" stroke-width="0" stroke-linecap="square" stroke-linejoin="bevel" d="M10.3769 4.66962C10.3769 2.09066 8.05397 1.57916e-16 5.18847 0C2.32295 -1.57916e-16 3.50925e-16 2.09066 0 4.66962C-3.50925e-16 7.24859 2.32295 9.33925 5.18847 9.33925C8.05397 9.33925 10.3769 7.24859 10.3769 4.66962Z" sodipodi:nodetypes="ccccc"/><path id="shape0141" transform="matrix(2.1193473179962 0 0 2.12057195818331 193.917324237582 419.705034316547)" fill="#e3e560" fill-rule="evenodd" stroke-opacity="0" stroke="#000000" stroke-width="0" stroke-linecap="square" stroke-linejoin="bevel" d="M6.41468 2.88662C6.41468 1.29238 4.97872 9.76189e-17 3.20735 0C1.43598 -9.76189e-17 2.16931e-16 1.29238 0 2.88662C-2.16931e-16 4.48086 1.43598 5.77324 3.20735 5.77324C4.97872 5.77324 6.41468 4.48086 6.41468 2.88662Z" sodipodi:nodetypes="ccccc"/><path id="shape0151" transform="matrix(2.1193473179962 0 0 2.12057195818331 180.300799160411 410.821362842486)" fill="#e3e560" fill-rule="evenodd" stroke-opacity="0" stroke="#000000" stroke-width="0" stroke-linecap="square" stroke-linejoin="bevel" d="M4.75465 2.1396C4.75465 0.957931 3.6903 7.23565e-17 2.37733 0C1.06437 -7.23565e-17 1.60792e-16 0.957931 0 2.1396C-1.60792e-16 3.32128 1.06437 4.27921 2.37733 4.27921C3.6903 4.27921 4.75465 3.32128 4.75465 2.1396Z" sodipodi:nodetypes="ccccc"/><path id="shape0161" transform="matrix(2.1193473179962 0 0 2.12057195818331 212.295096050258 426.934799608729)" fill="#e3e560" fill-rule="evenodd" stroke-opacity="0" stroke="#000000" stroke-width="0" stroke-linecap="square" stroke-linejoin="bevel" d="M2.06048 0.927221C2.06048 0.415131 1.59923 3.13565e-17 1.03024 0C0.461257 -3.13565e-17 6.96811e-17 0.415131 0 0.927221C-6.96811e-17 1.43932 0.461257 1.85445 1.03024 1.85445C1.59923 1.85445 2.06048 1.43932 2.06048 0.927221Z" sodipodi:nodetypes="ccccc"/><path id="shape0171" transform="matrix(2.1193473179962 0 0 2.12057195818331 180.342220112405 424.445397337538)" fill="#e3e560" fill-rule="evenodd" stroke-opacity="0" stroke="#000000" stroke-width="0" stroke-linecap="square" stroke-linejoin="bevel" d="M2.64153 1.1887C2.64153 0.532197 2.05021 4.0199e-17 1.32077 0C0.591331 -4.0199e-17 8.93311e-17 0.532197 0 1.1887C-8.93311e-17 1.84521 0.591331 2.3774 1.32077 2.3774C2.05021 2.3774 2.64153 1.84521 2.64153 1.1887Z" sodipodi:nodetypes="ccccc"/><path id="shape0181" transform="matrix(2.1193473179962 0 0 2.12057195818331 192.365703897027 454.934367034265)" fill="#e3e560" fill-rule="evenodd" stroke-opacity="0" stroke="#000000" stroke-width="0" stroke-linecap="square" stroke-linejoin="bevel" d="M3.05663 1.50003C3.05663 0.671587 2.37239 5.07277e-17 1.52832 0C0.684255 -5.07277e-17 1.03369e-16 0.671587 0 1.50003C-1.03369e-16 2.32849 0.684255 3.00008 1.52832 3.00008C2.37239 3.00008 3.05663 2.32849 3.05663 1.50003Z" sodipodi:nodetypes="ccccc"/><path id="shape0191" transform="matrix(2.1193473179962 0 0 2.12057195818331 164.177189671666 442.059267779699)" fill="#e3e560" fill-rule="evenodd" stroke-opacity="0" stroke="#000000" stroke-width="0" stroke-linecap="square" stroke-linejoin="bevel" d="M4.75465 2.1396C4.75465 0.957931 3.6903 7.23565e-17 2.37733 0C1.06437 -7.23565e-17 1.60792e-16 0.957931 0 2.1396C-1.60792e-16 3.32128 1.06437 4.27921 2.37733 4.27921C3.6903 4.27921 4.75465 3.32128 4.75465 2.1396Z" sodipodi:nodetypes="ccccc"/><path id="shape0201" transform="matrix(2.1193473179962 0 0 2.12057195818331 181.884031426158 463.214194060279)" fill="#e3e560" fill-rule="evenodd" stroke-opacity="0" stroke="#000000" stroke-width="0" stroke-linecap="square" stroke-linejoin="bevel" d="M4.75465 2.1396C4.75465 0.957931 3.6903 7.23565e-17 2.37733 0C1.06437 -7.23565e-17 1.60792e-16 0.957931 0 2.1396C-1.60792e-16 3.32128 1.06437 4.27921 2.37733 4.27921C3.6903 4.27921 4.75465 3.32128 4.75465 2.1396Z" sodipodi:nodetypes="ccccc"/><path id="shape0211" transform="matrix(2.1193473179962 0 0 2.12057195818331 158.58692778646 423.737911931237)" fill="#e3e560" fill-rule="evenodd" stroke-opacity="0" stroke="#000000" stroke-width="0" stroke-linecap="square" stroke-linejoin="bevel" d="M4.88634 2.7168C4.88634 1.12256 3.1532 0.0424539 2.613 0C1.86082 0.671858 0.516315 3.0343 0 4.16024C0.41698 4.82429 0.223564 4.89867 1.67901 5.60342C3.45038 5.60342 4.88634 4.31104 4.88634 2.7168Z" sodipodi:nodetypes="ccccc"/><path id="shape0221" transform="matrix(2.1193473179962 0 0 2.12057195818331 191.434008953261 401.394930553326)" fill="#e3e560" fill-rule="evenodd" stroke-opacity="0" stroke="#000000" stroke-width="0" stroke-linecap="square" stroke-linejoin="bevel" d="M2.70521 0.438975C2.70521 -0.217528 2.47475 0.0569 1.74531 0.0569C1.01587 0.0569 0.477607 0.238852 1.9e-33 0.481429C-8.84709e-17 1.13794 0.655012 1.62768 1.38445 1.62768C2.11389 1.62768 2.70521 1.09549 2.70521 0.438975Z" sodipodi:nodetypes="ccccc"/><path id="shape0231" transform="matrix(2.1193473179962 0 0 2.12057195818331 510.906089930813 113.344143654269)" fill="#e3e560" fill-rule="evenodd" stroke-opacity="0" stroke="#000000" stroke-width="0" stroke-linecap="square" stroke-linejoin="bevel" d="M7.28644 3.2789C7.28644 1.46801 5.65531 1.10885e-16 3.64322 0C1.63112 -1.10885e-16 2.46411e-16 1.46801 0 3.2789C-2.46411e-16 5.08979 1.63112 6.5578 3.64322 6.5578C5.65531 6.5578 7.28644 5.08979 7.28644 3.2789Z" sodipodi:nodetypes="ccccc"/><path id="shape0241" transform="matrix(2.1193473179962 0 0 2.12057195818331 485.84721961013 118.056189261372)" fill="#e3e560" fill-rule="evenodd" stroke-opacity="0" stroke="#000000" stroke-width="0" stroke-linecap="square" stroke-linejoin="bevel" d="M5.31391 2.39126C5.31391 1.0706 4.12435 8.08671e-17 2.65696 0C1.18956 -8.08671e-17 1.79704e-16 1.0706 0 2.39126C-1.79704e-16 3.71192 1.18956 4.78252 2.65696 4.78252C4.12435 4.78252 5.31391 3.71192 5.31391 2.39126Z" sodipodi:nodetypes="ccccc"/><path id="shape0251" transform="matrix(2.1193473179962 0 0 2.12057195818331 471.097462637511 129.134934803537)" fill="#e3e560" fill-rule="evenodd" stroke-opacity="0" stroke="#000000" stroke-width="0" stroke-linecap="square" stroke-linejoin="bevel" d="M10.1697 4.57635C10.1697 2.04889 7.8931 1.54762e-16 5.08484 0C2.27656 -1.54762e-16 3.43914e-16 2.04889 0 4.57635C-3.43914e-16 7.1038 2.27656 9.15269 5.08484 9.15269C7.8931 9.15269 10.1697 7.1038 10.1697 4.57635Z" sodipodi:nodetypes="ccccc"/><path id="shape0261" transform="matrix(2.1193473179962 0 0 2.12057195818331 502.58249602301 162.529327264739)" fill="#e3e560" fill-rule="evenodd" stroke-opacity="0" stroke="#000000" stroke-width="0" stroke-linecap="square" stroke-linejoin="bevel" d="M3.52141 1.58464C3.52141 0.709464 2.73312 5.35889e-17 1.76071 0C0.788296 -5.35889e-17 1.19086e-16 0.709464 0 1.58464C-1.19086e-16 2.45981 0.788296 3.16927 1.76071 3.16927C2.73312 3.16927 3.52141 2.45981 3.52141 1.58464Z" sodipodi:nodetypes="ccccc"/><path id="shape0271" transform="matrix(2.1193473179962 0 0 2.12057195818331 548.808566954276 161.340183800072)" fill="#e3e560" fill-rule="evenodd" stroke-opacity="0" stroke="#000000" stroke-width="0" stroke-linecap="square" stroke-linejoin="bevel" d="M2.63501 1.18576C2.63501 0.53088 2.04515 4.00997e-17 1.31751 0C0.589869 -4.00997e-17 8.91101e-17 0.53088 0 1.18576C-8.91101e-17 1.84064 0.589869 2.37151 1.31751 2.37151C2.04515 2.37151 2.63501 1.84064 2.63501 1.18576Z" sodipodi:nodetypes="ccccc"/><path id="shape0281" transform="matrix(2.1193473179962 0 0 2.12057195818331 559.394441152572 156.360690368862)" fill="#e3e560" fill-rule="evenodd" stroke-opacity="0" stroke="#000000" stroke-width="0" stroke-linecap="square" stroke-linejoin="bevel" d="M2.63501 1.18576C2.63501 0.53088 2.04515 4.00997e-17 1.31751 0C0.589869 -4.00997e-17 8.91101e-17 0.53088 0 1.18576C-8.91101e-17 1.84064 0.589869 2.37151 1.31751 2.37151C2.04515 2.37151 2.63501 1.84064 2.63501 1.18576Z" sodipodi:nodetypes="ccccc"/><path id="shape0291" transform="matrix(2.1193473179962 0 0 2.12057195818331 572.499604273237 149.400611844384)" fill="#e3e560" fill-rule="evenodd" stroke-opacity="0" stroke="#000000" stroke-width="0" stroke-linecap="square" stroke-linejoin="bevel" d="M5.68333 2.55751C5.68333 1.14503 4.41109 8.64892e-17 2.84168 0C1.27226 -8.64892e-17 1.92197e-16 1.14503 0 2.55751C-1.92197e-16 3.96999 1.27226 5.115 2.84168 5.115C4.41109 5.115 5.68333 3.96999 5.68333 2.55751Z" sodipodi:nodetypes="ccccc"/><path id="shape030" transform="matrix(2.11859527912024 -0.056487006521662 0.0564543850121823 2.11981948475044 577.94666027513 120.466518502009)" fill="#e3e560" fill-rule="evenodd" stroke-opacity="0" stroke="#000000" stroke-width="0" stroke-linecap="square" stroke-linejoin="bevel" d="M11.5293 5.18821C11.5293 2.32283 8.94842 1.75454e-16 5.76468 0C2.58093 -1.75454e-16 3.89894e-16 2.32283 0 5.18821C-3.89894e-16 8.05359 2.58093 10.3764 5.76468 10.3764C8.94842 10.3764 11.5293 8.05359 11.5293 5.18821Z" sodipodi:nodetypes="ccccc"/><path id="shape0311" transform="matrix(2.11859527912023 -0.056487006521662 0.0564543850121823 2.11981948475043 566.39367583743 108.971254674744)" fill="#e3e560" fill-rule="evenodd" stroke-opacity="0" stroke="#000000" stroke-width="0" stroke-linecap="square" stroke-linejoin="bevel" d="M4.66586 2.09965C4.66586 0.94004 3.62139 7.10055e-17 2.33294 0C1.04449 -7.10055e-17 1.57789e-16 0.94004 0 2.09965C-1.57789e-16 3.25925 1.04449 4.19929 2.33294 4.19929C3.62139 4.19929 4.66586 3.25925 4.66586 2.09965Z" sodipodi:nodetypes="ccccc"/><path id="shape0321" transform="matrix(2.11859527912023 -0.056487006521662 0.0564543850121823 2.11981948475043 588.797350050365 95.7123736781699)" fill="#e3e560" fill-rule="evenodd" stroke-opacity="0" stroke="#000000" stroke-width="0" stroke-linecap="square" stroke-linejoin="bevel" d="M3.43349 1.54508C3.43349 0.691752 2.66489 5.22511e-17 1.71675 0C0.768614 -5.22511e-17 1.16113e-16 0.691752 0 1.54508C-1.16113e-16 2.3984 0.768614 3.09015 1.71675 3.09015C2.66489 3.09015 3.43349 2.3984 3.43349 1.54508Z" sodipodi:nodetypes="ccccc"/><path id="shape0331" transform="matrix(2.11859527912023 -0.056487006521662 0.0564543850121823 2.11981948475043 615.220330450373 129.827961109468)" fill="#e3e560" fill-rule="evenodd" stroke-opacity="0" stroke="#000000" stroke-width="0" stroke-linecap="square" stroke-linejoin="bevel" d="M6.32641 2.8469C6.32641 1.27459 4.91022 9.62758e-17 3.16322 0C1.41622 -9.62758e-17 2.13945e-16 1.27459 0 2.8469C-2.13945e-16 4.4192 1.41622 5.69379 3.16322 5.69379C4.91022 5.69379 6.32641 4.4192 6.32641 2.8469Z" sodipodi:nodetypes="ccccc"/><path id="shape034" transform="matrix(2.11859527912023 -0.056487006521662 0.0564543850121823 2.11981948475043 606.381349952833 140.758238805451)" fill="#e3e560" fill-rule="evenodd" stroke-opacity="0" stroke="#000000" stroke-width="0" stroke-linecap="square" stroke-linejoin="bevel" d="M3.53658 1.59147C3.53658 0.71252 2.7449 5.382e-17 1.7683 0C0.791693 -5.382e-17 1.19599e-16 0.71252 0 1.59147C-1.19599e-16 2.47042 0.791693 3.18293 1.7683 3.18293C2.7449 3.18293 3.53658 2.47042 3.53658 1.59147Z" sodipodi:nodetypes="ccccc"/><path id="shape035" transform="matrix(2.11859527912023 -0.056487006521662 0.0564543850121823 2.11981948475043 637.077348448977 139.164741426019)" fill="#e3e560" fill-rule="evenodd" stroke-opacity="0" stroke="#000000" stroke-width="0" stroke-linecap="square" stroke-linejoin="bevel" d="M3.53658 1.59147C3.53658 0.71252 2.7449 5.382e-17 1.7683 0C0.791693 -5.382e-17 1.19599e-16 0.71252 0 1.59147C-1.19599e-16 2.47042 0.791693 3.18293 1.7683 3.18293C2.7449 3.18293 3.53658 2.47042 3.53658 1.59147Z" sodipodi:nodetypes="ccccc"/><path id="shape036" transform="matrix(2.11859527912023 -0.056487006521662 0.0564543850121823 2.11981948475043 628.904317857142 152.695712031537)" fill="#e3e560" fill-rule="evenodd" stroke-opacity="0" stroke="#000000" stroke-width="0" stroke-linecap="square" stroke-linejoin="bevel" d="M7.25881 3.26648C7.25881 1.46244 5.63389 1.10465e-16 3.62943 0C1.62495 -1.10465e-16 2.45476e-16 1.46244 0 3.26648C-2.45476e-16 5.07053 1.62495 6.53295 3.62943 6.53295C5.63389 6.53295 7.25881 5.07053 7.25881 3.26648Z" sodipodi:nodetypes="ccccc"/><path id="shape037" transform="matrix(2.11859527912023 -0.056487006521662 0.0564543850121823 2.11981948475043 648.204392046913 166.156035681899)" fill="#e3e560" fill-rule="evenodd" stroke-opacity="0" stroke="#000000" stroke-width="0" stroke-linecap="square" stroke-linejoin="bevel" d="M3.89984 1.75494C3.89984 0.785704 3.02684 5.9348e-17 1.94993 0C0.873014 -5.9348e-17 1.31883e-16 0.785704 0 1.75494C-1.31883e-16 2.72417 0.873014 3.50987 1.94993 3.50987C3.02684 3.50987 3.89984 2.72417 3.89984 1.75494Z" sodipodi:nodetypes="ccccc"/><path id="shape038" transform="matrix(2.11859527912023 -0.056487006521662 0.0564543850121823 2.11981948475043 630.480753663378 178.988985747978)" fill="#e3e560" fill-rule="evenodd" stroke-opacity="0" stroke="#000000" stroke-width="0" stroke-linecap="square" stroke-linejoin="bevel" d="M3.89984 1.75494C3.89984 0.785704 3.02684 5.9348e-17 1.94993 0C0.873014 -5.9348e-17 1.31883e-16 0.785704 0 1.75494C-1.31883e-16 2.72417 0.873014 3.50987 1.94993 3.50987C3.02684 3.50987 3.89984 2.72417 3.89984 1.75494Z" sodipodi:nodetypes="ccccc"/><path id="shape039" transform="matrix(2.11859527912023 -0.056487006521662 0.0564543850121823 2.11981948475043 653.695557702155 154.01066949339)" fill="#e3e560" fill-rule="evenodd" stroke-opacity="0" stroke="#000000" stroke-width="0" stroke-linecap="square" stroke-linejoin="bevel" d="M1.94993 4.54558e-05C0.611912 -0.00691215 1.31839e-16 0.785749 0 1.75499C-1.31839e-16 2.72422 1.08521 3.51557 2.16212 3.51557C2.70058 3.51557 3.01265 3.52682 3.36551 3.20924C3.31068 3.04492 2.21721 0.361204 1.94993 4.54558e-05Z" sodipodi:nodetypes="ccccc"/><path id="shape040" transform="matrix(2.11859527912023 -0.056487006521662 0.0564543850121823 2.11981948475043 649.558087144723 187.36977961162)" fill="#e3e560" fill-rule="evenodd" stroke-opacity="0" stroke="#000000" stroke-width="0" stroke-linecap="square" stroke-linejoin="bevel" d="M6.99368 3.16643C6.99368 1.41764 5.42811 1.07081e-16 3.49686 0C1.5656 -1.07081e-16 2.36509e-16 1.41764 0 3.16643C-2.36509e-16 4.9152 1.5656 6.33284 3.49686 6.33284C5.42811 6.33284 6.99368 4.9152 6.99368 3.16643Z" sodipodi:nodetypes="ccccc"/><path id="shape0411" transform="matrix(2.1193473179962 0 0 2.12057195818331 617.806156316995 227.587232535448)" fill="#e3e560" fill-rule="evenodd" stroke-opacity="0" stroke="#000000" stroke-width="0" stroke-linecap="square" stroke-linejoin="bevel" d="M4.22627 1.91454C4.22627 0.857164 3.2802 6.47454e-17 2.11315 0C0.946086 -6.47454e-17 1.42923e-16 0.857164 0 1.91454C-1.42923e-16 2.97191 0.946086 3.82906 2.11315 3.82906C3.2802 3.82906 4.22627 2.97191 4.22627 1.91454Z" sodipodi:nodetypes="ccccc"/><path id="shape0421" transform="matrix(2.1193473179962 0 0 2.12057195818331 634.001585103653 207.755259159937)" fill="#e3e560" fill-rule="evenodd" stroke-opacity="0" stroke="#000000" stroke-width="0" stroke-linecap="square" stroke-linejoin="bevel" d="M2.95265 1.57696C2.95265 0.706025 2.29169 5.33292e-17 1.47633 0C0.660976 -5.33292e-17 9.98519e-17 0.706025 0 1.57696C-9.98519e-17 2.4479 0.660976 3.15391 1.47633 3.15391C2.29169 3.15391 2.95265 2.4479 2.95265 1.57696Z" sodipodi:nodetypes="ccccc"/><path id="shape043" transform="matrix(2.1193473179962 0 0 2.12057195818331 662.752935791772 207.035046398748)" fill="#e3e560" fill-rule="evenodd" stroke-opacity="0" stroke="#000000" stroke-width="0" stroke-linecap="square" stroke-linejoin="bevel" d="M5.38242 0.371096C4.54542 0.045016 5.11766 0.142095 4.03996 0C1.80875 -1.38778e-16 2.73242e-16 1.78944 0 3.99684C-2.73242e-16 6.20425 1.80875 7.99366 4.03996 7.99366C5.13733 7.89342 5.3904 7.9176 6.01923 7.54474C5.9512 6.73508 5.52303 1.03055 5.38242 0.371096Z" sodipodi:nodetypes="cccccc"/><path id="shape044" transform="matrix(2.1193473179962 0 0 2.12057195818331 646.536179538289 232.046270975721)" fill="#e3e560" fill-rule="evenodd" stroke-opacity="0" stroke="#000000" stroke-width="0" stroke-linecap="square" stroke-linejoin="bevel" d="M9.3177 4.60915C9.3177 2.06358 7.23189 1.55871e-16 4.65888 0C2.08585 -1.55871e-16 3.15103e-16 2.06358 0 4.60915C-3.15103e-16 7.15474 2.08585 9.21829 4.65888 9.21829C7.23189 9.21829 9.3177 7.15474 9.3177 4.60915Z" sodipodi:nodetypes="ccccc"/><path id="shape045" transform="matrix(2.1193473179962 0 0 2.12057195818331 645.048198301519 223.574746634576)" fill="#e3e560" fill-rule="evenodd" stroke-opacity="0" stroke="#000000" stroke-width="0" stroke-linecap="square" stroke-linejoin="bevel" d="M2.19778 0.995617C2.19778 0.44575 1.7058 3.36695e-17 1.0989 0C0.491992 -3.36695e-17 7.43242e-17 0.44575 0 0.995617C-7.43242e-17 1.54548 0.491992 1.99122 1.0989 1.99122C1.7058 1.99122 2.19778 1.54548 2.19778 0.995617Z" sodipodi:nodetypes="ccccc"/><path id="shape046" transform="matrix(2.1193473179962 0 0 2.12057195818331 664.374347533918 263.936670160147)" fill="#e3e560" fill-rule="evenodd" stroke-opacity="0" stroke="#000000" stroke-width="0" stroke-linecap="square" stroke-linejoin="bevel" d="M1.82292 0.8258C1.82292 0.369721 1.41485 2.79267e-17 0.911467 0C0.408076 -2.79267e-17 6.16471e-17 0.369721 0 0.8258C-6.16471e-17 1.28188 0.408076 1.65159 0.911467 1.65159C1.41485 1.65159 1.82292 1.28188 1.82292 0.8258Z" sodipodi:nodetypes="ccccc"/><path id="shape047" transform="matrix(2.1193473179962 0 0 2.12057195818331 638.644250902715 263.21645802857)" fill="#e3e560" fill-rule="evenodd" stroke-opacity="0" stroke="#000000" stroke-width="0" stroke-linecap="square" stroke-linejoin="bevel" d="M4.68705 4.36365C4.68705 1.95366 2.67227 1.47569e-16 0.0123116 0C-0.0657038 0.774595 0.262471 7.62903 0.0123116 8.75556C2.61566 8.30271 4.68705 6.77362 4.68705 4.36365Z" sodipodi:nodetypes="cccc"/><path id="shape048" transform="matrix(2.1193473179962 0 0 2.12057195818331 654.655217125132 281.560574212442)" fill="#e3e560" fill-rule="evenodd" stroke-opacity="0" stroke="#000000" stroke-width="0" stroke-linecap="square" stroke-linejoin="bevel" d="M4.22627 1.91454C4.22627 0.857164 3.2802 6.47454e-17 2.11315 0C0.946086 -6.47454e-17 1.42923e-16 0.857164 0 1.91454C-1.42923e-16 2.97191 0.946086 3.82906 2.11315 3.82906C3.2802 3.82906 4.22627 2.97191 4.22627 1.91454Z" sodipodi:nodetypes="ccccc"/><path id="shape049" transform="matrix(2.1193473179962 0 0 2.12057195818331 659.093964009498 295.724757671558)" fill="#e3e560" fill-rule="evenodd" stroke-opacity="0" stroke="#000000" stroke-width="0" stroke-linecap="square" stroke-linejoin="bevel" d="M3.60735 0.560754C3.22496 0.214291 2.69667 3.23727e-17 2.11315 0C0.946086 -6.47454e-17 1.42923e-16 0.857164 0 1.91454C-1.42923e-16 2.97191 0.946086 3.82906 2.11315 3.82906C2.80378 3.62846 3.06394 0.5174 3.60735 0.560754Z" sodipodi:nodetypes="ccccc"/><path id="shape050" transform="matrix(2.1193473179962 0 0 2.12057195818331 638.694035622242 302.686816588146)" fill="#e3e560" fill-rule="evenodd" stroke-opacity="0" stroke="#000000" stroke-width="0" stroke-linecap="square" stroke-linejoin="bevel" d="M6.02796 3.43468C6.02796 1.53775 4.33071 1.16153e-16 2.23703 0C1.19017 0.0285417 0.808477 0.0763962 0.122444 0.692339C-0.0447214 1.47043 0.00709511 5.76685 0.00923308 6.17468C0.695266 6.79623 1.19017 6.86933 2.23703 6.86933C4.33071 6.86933 6.02796 5.3316 6.02796 3.43468Z" sodipodi:nodetypes="cccccc"/><path id="shape0511" transform="matrix(2.1193473179962 0 0 2.12057195818331 644.017950657237 321.991217111833)" fill="#e3e560" fill-rule="evenodd" stroke-opacity="0" stroke="#000000" stroke-width="0" stroke-linecap="square" stroke-linejoin="bevel" d="M2.65731 1.20379C2.65731 0.538951 2.06246 4.07094e-17 1.32867 0C0.594862 -4.07094e-17 8.98644e-17 0.538951 0 1.20379C-8.98644e-17 1.86862 0.594862 2.40756 1.32867 2.40756C2.06246 2.40756 2.65731 1.86862 2.65731 1.20379Z" sodipodi:nodetypes="ccccc"/><path id="shape0521" transform="matrix(2.11859527912023 -0.056487006521662 0.0564543850121823 2.11981948475043 589.363720946568 192.782219352548)" fill="#e3e560" fill-rule="evenodd" stroke-opacity="0" stroke="#000000" stroke-width="0" stroke-linecap="square" stroke-linejoin="bevel" d="M3.89984 1.75494C3.89984 0.785704 3.02684 5.9348e-17 1.94993 0C0.873014 -5.9348e-17 1.31883e-16 0.785704 0 1.75494C-1.31883e-16 2.72417 0.873014 3.50987 1.94993 3.50987C3.02684 3.50987 3.89984 2.72417 3.89984 1.75494Z" sodipodi:nodetypes="ccccc"/><path id="shape053" transform="matrix(2.1193473179962 0 0 2.12057195818331 606.052461437453 195.445586987016)" fill="#e3e560" fill-rule="evenodd" stroke-opacity="0" stroke="#000000" stroke-width="0" stroke-linecap="square" stroke-linejoin="bevel" d="M2.19778 0.995617C2.19778 0.44575 1.7058 3.36695e-17 1.0989 0C0.491992 -3.36695e-17 7.43242e-17 0.44575 0 0.995617C-7.43242e-17 1.54548 0.491992 1.99122 1.0989 1.99122C1.7058 1.99122 2.19778 1.54548 2.19778 0.995617Z" sodipodi:nodetypes="ccccc"/><path id="shape054" transform="matrix(2.1193473179962 0 0 2.12057195818331 598.967717590064 204.167313620251)" fill="#e3e560" fill-rule="evenodd" stroke-opacity="0" stroke="#000000" stroke-width="0" stroke-linecap="square" stroke-linejoin="bevel" d="M2.19778 0.995617C2.19778 0.44575 1.7058 3.36695e-17 1.0989 0C0.491992 -3.36695e-17 7.43242e-17 0.44575 0 0.995617C-7.43242e-17 1.54548 0.491992 1.99122 1.0989 1.99122C1.7058 1.99122 2.19778 1.54548 2.19778 0.995617Z" sodipodi:nodetypes="ccccc"/><path id="shape055" transform="matrix(2.1193473179962 0 0 2.12057195818331 588.164023428701 210.728401969923)" fill="#e3e560" fill-rule="evenodd" stroke-opacity="0" stroke="#000000" stroke-width="0" stroke-linecap="square" stroke-linejoin="bevel" d="M2.19778 0.995617C2.19778 0.44575 1.7058 3.36695e-17 1.0989 0C0.491992 -3.36695e-17 7.43242e-17 0.44575 0 0.995617C-7.43242e-17 1.54548 0.491992 1.99122 1.0989 1.99122C1.7058 1.99122 2.19778 1.54548 2.19778 0.995617Z" sodipodi:nodetypes="ccccc"/><path id="shape056" transform="matrix(2.1193473179962 0 0 2.12057195818331 456.194710554252 130.311019499591)" fill="#e3e560" fill-rule="evenodd" stroke-opacity="0" stroke="#000000" stroke-width="0" stroke-linecap="square" stroke-linejoin="bevel" d="M3.52141 1.58464C3.52141 0.709464 2.73312 5.35889e-17 1.76071 0C0.788296 -5.35889e-17 1.19086e-16 0.709464 0 1.58464C-1.19086e-16 2.45981 0.788296 3.16927 1.76071 3.16927C2.73312 3.16927 3.52141 2.45981 3.52141 1.58464Z" sodipodi:nodetypes="ccccc"/>
</svg>
